<svg  viewBox="0 0 1315 2029" fill="none" xmlns="http://www.w3.org/2000/svg">
<g clip-path="url(#clip0_43_3)">
<path d="M452.467 651.782L379.061 641.773L445.701 646.585L426.316 631.678L373.922 623.343L421.193 627.733L386.33 600.925L340.698 600.335L380.845 596.713L317.669 547.014L317.407 546.805L317.679 547.008L398.977 608.196L381.481 558.087L405.928 613.289L445.858 641.691L444.882 640.809L427.945 585.449L448.542 643.596L453.537 647.147L453.644 647.156L454.024 647.493L506.874 685.083C505.779 687.057 504.628 689.019 503.423 690.967L499.409 687.883L443.273 684.852L495.572 684.934L452.467 651.782Z" fill="#3F3D56"/>
<path d="M396.236 818.879L322.83 808.871L389.47 813.683L370.085 798.776L317.692 790.44L364.962 794.831L330.099 768.023L284.467 767.432L324.614 763.81L261.438 714.111L261.176 713.903L261.448 714.105L342.746 775.293L325.25 725.185L349.697 780.387L389.627 808.788L388.651 807.907L371.714 752.546L392.311 810.694L397.306 814.244L397.413 814.253L397.793 814.59L450.643 852.18C449.548 854.155 448.397 856.116 447.192 858.065L443.178 854.981L387.042 851.949L439.341 852.031L396.236 818.879Z" fill="#CBCBCB"/>
<path d="M519.202 521.692L445.796 511.684L512.436 516.496L493.051 501.589L440.658 493.253L487.928 497.644L453.065 470.836L407.433 470.246L447.58 466.624L384.404 416.924L384.142 416.716L384.414 416.918L465.712 478.106L448.216 427.998L472.663 483.2L512.594 511.601L511.617 510.72L494.68 455.359L515.277 513.507L520.272 517.058L520.379 517.066L520.759 517.403L573.61 554.994C572.514 556.968 571.363 558.93 570.158 560.878L566.144 557.794L510.008 554.762L562.307 554.844L519.202 521.692Z" fill="#3F3D56"/>
<path d="M383.847 1193.24C382.832 1166.33 383.459 1139.38 385.722 1112.56C391.787 1037.37 409.463 952.537 438.004 862.414C439.961 856.218 441.973 849.998 444.04 843.756C448.418 830.491 453.032 817.128 457.882 803.667C459.082 800.344 460.29 797.014 461.504 793.679C468.348 775.016 475.628 756.205 483.344 737.246C483.496 736.863 483.654 736.485 483.818 736.099C485.622 731.644 487.459 727.186 489.327 722.725C526.476 633.463 573.023 541.434 628.333 450.28C628.783 449.523 629.246 448.762 629.704 448.01L913.757 660.449L465.912 1396.63C414.412 1358.12 387.72 1286.48 383.847 1193.24Z" fill="#F4F4F4"/>
<path d="M505.231 1071.19C503.277 1024.09 508.871 969.828 521.595 910.912C523.001 904.367 524.5 897.769 526.094 891.116C526.314 890.186 526.538 889.248 526.763 888.31C528.813 879.853 530.998 871.307 533.32 862.671C537.253 848.084 541.581 833.296 546.302 818.305C549.675 807.569 553.247 796.749 557.019 785.846C558.224 782.337 559.455 778.83 560.713 775.323C563.545 767.332 566.488 759.304 569.542 751.238C600.715 668.737 642.751 582.183 694.77 496.672L913.757 660.449L568.496 1228C528.792 1198.31 508.216 1143.08 505.231 1071.19Z" fill="#F9A826" fill-opacity="0.6"/>
<path d="M593.863 1159.13L595.319 1158.17C589.318 1146.75 584.449 1134.64 580.799 1122.05L579.192 1122.64C582.884 1135.35 587.803 1147.58 593.863 1159.13V1159.13ZM570.862 1083.79L572.53 1083.49C570.777 1071.1 569.651 1058.62 569.159 1046.09C569.128 1045.39 569.101 1044.68 569.074 1043.97L567.386 1044.05C567.413 1044.76 567.44 1045.47 567.474 1046.18C567.971 1058.78 569.102 1071.33 570.862 1083.79V1083.79ZM567.634 1004.14L569.317 1004.23C569.894 991.504 570.956 978.179 572.466 964.635L570.784 964.405C569.276 977.995 568.216 991.367 567.634 1004.14ZM576.306 924.99L577.959 925.334C580.079 912.664 582.591 899.565 585.424 886.424L583.785 885.989C580.94 899.166 578.426 912.286 576.306 924.99V924.99ZM592.94 847.429L594.558 847.95C595.424 844.602 596.308 841.257 597.212 837.88C599.693 828.698 602.361 819.293 605.164 809.933L603.558 809.342C600.753 818.723 598.076 828.143 595.599 837.352C594.693 840.722 593.806 844.081 592.94 847.429L592.94 847.429ZM619.318 760.461C618.012 764.214 616.72 768.011 615.476 771.73L617.055 772.381C618.306 768.667 619.593 764.878 620.892 761.12C622.122 757.558 623.356 754.023 624.583 750.618C626.389 745.524 628.252 740.37 630.125 735.316L628.565 734.6C626.689 739.676 624.82 744.824 623.009 749.926C621.789 753.337 620.545 756.887 619.318 760.461L619.318 760.461ZM642.727 697.968L644.27 698.727C649.083 686.784 654.174 674.632 659.401 662.627L657.879 661.816C652.65 673.842 647.553 686.001 642.727 697.968V697.968ZM673.962 626.157L675.463 627.02C680.908 615.358 686.606 603.548 692.395 591.906L690.918 591.005C685.124 602.654 679.416 614.48 673.962 626.157L673.962 626.157ZM708.71 556.353L710.166 557.307C716.169 545.949 722.413 534.48 728.725 523.218L727.292 522.225C720.974 533.516 714.725 544.993 708.71 556.353L708.71 556.353Z" fill="white"/>
<path d="M627.923 947.837C623.648 844.909 670.92 693.172 760.536 545.857L913.756 660.449L672.185 1057.55C644.409 1036.78 630.011 998.135 627.923 947.837Z" fill="#F4F4F4"/>
</g>
<g clip-path="url(#clip1_43_3)">
<path d="M929.537 1146.75C930.764 1173.65 930.349 1200.61 928.296 1227.44C922.824 1302.69 905.817 1387.69 877.986 1478.09C876.077 1484.3 874.114 1490.54 872.097 1496.8C867.823 1510.11 863.315 1523.51 858.571 1537.02C857.397 1540.36 856.215 1543.7 855.027 1547.04C848.33 1565.77 841.199 1584.65 833.632 1603.69C833.484 1604.07 833.328 1604.45 833.168 1604.84C831.398 1609.31 829.597 1613.79 827.764 1618.27C791.319 1707.88 745.497 1800.36 690.908 1892.04C690.463 1892.81 690.006 1893.57 689.555 1894.33L403.841 1684.65L845.874 944.155C897.675 982.172 924.93 1053.54 929.537 1146.75Z" fill="#F4F4F4"/>
<path d="M809.118 1269.96C811.442 1317.05 806.275 1371.36 794.016 1430.4C792.662 1436.96 791.214 1443.57 789.673 1450.24C789.46 1451.17 789.243 1452.11 789.026 1453.05C787.043 1461.52 784.925 1470.09 782.671 1478.75C778.853 1493.37 774.642 1508.2 770.038 1523.24C766.751 1534.01 763.264 1544.86 759.577 1555.8C758.4 1559.32 757.197 1562.84 755.967 1566.36C753.198 1574.38 750.318 1582.43 747.327 1590.53C716.805 1673.33 675.452 1760.29 624.108 1846.3L403.84 1684.65L744.621 1113.77C784.557 1143.08 805.567 1198.11 809.118 1269.96Z" fill="#F9A826" fill-opacity="0.6"/>
<path d="M719.797 1182.89L718.349 1183.86C724.44 1195.22 729.404 1207.29 733.153 1219.84L734.754 1219.24C730.963 1206.56 725.948 1194.37 719.797 1182.89V1182.89ZM743.39 1258.01L741.725 1258.32C743.575 1270.69 744.799 1283.16 745.39 1295.68C745.427 1296.38 745.459 1297.09 745.492 1297.8L747.179 1297.7C747.147 1297 747.114 1296.29 747.074 1295.57C746.478 1282.99 745.248 1270.44 743.39 1258.01V1258.01ZM747.245 1337.62L745.562 1337.54C745.085 1350.28 744.128 1363.61 742.724 1377.17L744.408 1377.38C745.809 1363.78 746.763 1350.4 747.245 1337.62ZM739.196 1416.85L737.54 1416.52C735.521 1429.21 733.112 1442.33 730.382 1455.5L732.024 1455.92C734.765 1442.72 737.177 1429.57 739.196 1416.85V1416.85ZM723.173 1494.57L721.552 1494.06C720.712 1497.42 719.854 1500.77 718.977 1504.16C716.568 1513.36 713.974 1522.79 711.245 1532.18L712.855 1532.76C715.587 1523.35 718.189 1513.9 720.593 1504.67C721.473 1501.29 722.333 1497.92 723.173 1494.57L723.173 1494.57ZM697.481 1581.79C698.757 1578.02 700.019 1574.21 701.234 1570.48L699.65 1569.85C698.428 1573.57 697.171 1577.37 695.902 1581.15C694.7 1584.72 693.493 1588.26 692.293 1591.68C690.528 1596.79 688.706 1601.96 686.872 1607.04L688.437 1607.74C690.273 1602.64 692.103 1597.48 693.873 1592.36C695.066 1588.94 696.282 1585.37 697.481 1581.79L697.481 1581.79ZM674.565 1644.51L673.015 1643.76C668.297 1655.75 663.301 1667.95 658.169 1680.01L659.698 1680.8C664.832 1668.73 669.833 1656.52 674.565 1644.51V1644.51ZM643.896 1716.62L642.388 1715.77C637.035 1727.48 631.43 1739.35 625.733 1751.04L627.217 1751.93C632.919 1740.23 638.533 1728.35 643.896 1716.62L643.896 1716.62ZM609.699 1786.75L608.235 1785.81C602.322 1797.23 596.168 1808.76 589.945 1820.08L591.385 1821.06C597.615 1809.71 603.774 1798.17 609.699 1786.75L609.699 1786.75Z" fill="white"/>
<path d="M687.402 1394.5C692.486 1497.39 646.41 1649.57 557.957 1797.75L403.84 1684.65L642.277 1285.22C670.216 1305.72 684.917 1344.23 687.402 1394.5Z" fill="#F4F4F4"/>
<path d="M588.5 1686L711.5 1686L636.5 1873L524.5 1806L588.5 1686Z" fill="#F4F4F4"/>
</g>
<path d="M568.5 1228L672 1057.5L744.5 1114L642.5 1285L568.5 1228Z" fill="#F7C678"/>
<path d="M676.416 1189C647.467 1186.56 636.095 1178.65 634.027 1175" stroke="white" stroke-width="1.8"/>
<g filter="url(#filter0_d_43_3)">
<path d="M1087.47 12.8716C1089.69 24.9233 1092.04 36.9515 1094.66 48.9238C1097.03 59.7297 1103.58 68.8639 1107.38 79.1189C1111.08 89.0634 1114.98 98.2006 1119.55 107.862C1134.62 139.745 1153.63 169.357 1174.75 198.141C1186.74 214.475 1193.98 229.357 1198.2 248.594C1201.31 262.785 1201.8 285.826 1201.8 300.27C1201.8 321.59 1186.12 323.307 1186.12 344.851C1152.61 344.851 1189.29 378.108 1186.12 391.837C1134.03 421.862 1206.28 431.356 1201.8 443.881C1196.68 458.2 1188.57 469.207 1173.6 476.91C1162.75 482.492 1145.51 487.097 1132.75 487.097C1127.44 487.097 1106.08 481.703 1106.05 481.906C1106.57 482.068 1107.09 482.237 1107.61 482.414C1106.52 482.094 1106.05 481.937 1106.05 481.906C1087.17 475.975 1075.74 480.413 1066.61 480.413C1043.71 480.413 1028.76 484.164 1006.53 489.743L1006.1 489.849C973.626 497.998 957.072 514.116 930.159 533.193C921.512 539.322 912.712 543.467 904.475 550.392C895.587 557.865 888.188 568.315 877.093 572.992C855.744 581.991 838.955 582 816.088 582C805.068 582 783.536 580.802 773.256 575.695C757.588 567.911 735.616 557.918 722.033 547.258C711.585 539.059 698.196 533.652 685.577 530.456C668.508 526.132 658.571 529.272 641.164 534.771L640.596 534.951C622.572 536.961 605.933 545.464 589.57 550.973C573.108 556.515 545.767 557.545 528.565 556.478C499.327 554.664 486.021 530.991 473.772 507.584C461.985 485.062 435.099 469.258 434.057 443.881C433.311 425.703 440.057 408.851 445.058 391.837C446.253 356.432 487.548 322.443 512.577 300.27C526.954 287.533 542.473 270.689 548.103 252.263C553.04 236.103 553.708 212.94 545.062 197.835C533.043 176.837 503.188 177.89 487.614 160.149C474.207 144.877 462.97 127.226 462.97 107.021C462.97 98.5162 462.792 89.9918 462.97 81.4886C463.176 71.6514 468.716 63.2826 474.064 55.2017L474.172 55.0392C482.941 41.79 500.615 36.8182 515.938 34.3995C526.368 32.7531 536.053 30.2716 546.662 30.2716C561.248 30.2716 575.411 33.0235 590.029 33.0235C625.617 33.0235 661.157 34.3995 696.765 34.3995H793.259C821.97 34.3995 849.684 31.451 878.231 29.9658C901.191 28.7713 924.199 27.6414 947.041 25.3792C978.394 22.2742 1009.76 23.0279 1041.14 19.5695C1056.28 17.9 1072.03 14.2011 1087.47 12.8716Z" fill="#F9A826"/>
</g>
<g clip-path="url(#clip2_43_3)">
<path d="M822.172 175.5C831.387 175.5 838.857 168.24 838.857 159.284C838.857 150.327 831.387 143.067 822.172 143.067C812.957 143.067 805.487 150.327 805.487 159.284C805.487 168.24 812.957 175.5 822.172 175.5Z" fill="#FD6584"/>
<path d="M859.514 151.605C859.044 150.105 858.132 148.772 856.892 147.77C855.652 146.767 854.137 146.139 852.534 145.962C852.497 145.959 852.459 145.959 852.422 145.962C852.377 145.949 852.331 145.939 852.285 145.932C846.698 145.228 840.487 146.94 836.306 150.669C834.754 152.032 833.513 153.695 832.663 155.553C831.888 154.524 830.867 153.694 829.688 153.135C828.508 152.576 827.207 152.305 825.896 152.346C824.204 152.454 822.589 153.067 821.269 154.101C819.95 155.135 818.99 156.539 818.522 158.122C818.47 158.315 818.485 158.519 818.562 158.704C818.64 158.889 818.777 159.045 818.953 159.148C819.456 159.566 820.053 159.861 820.696 160.01C822.077 160.296 823.471 160.557 824.864 160.794C827.589 161.256 830.328 161.63 833.082 161.918C834.9 162.106 836.723 162.256 838.549 162.367C842.324 162.598 846.117 162.652 849.897 162.537C851.772 162.476 853.572 162.416 855.284 161.614C856.532 161.018 857.598 160.115 858.377 158.996C859.111 157.92 859.593 156.7 859.789 155.423C859.986 154.146 859.892 152.843 859.514 151.605Z" fill="#E6E6E6"/>
<path d="M825.189 175.231C825.158 174.551 825.04 173.878 824.84 173.226C824.367 171.727 823.454 170.394 822.213 169.392C820.972 168.39 819.457 167.761 817.853 167.584C817.818 167.581 817.782 167.581 817.747 167.584C817.7 167.571 817.652 167.561 817.603 167.554C814.511 167.186 811.374 167.499 808.424 168.471C803.887 169.947 799.907 172.923 797.988 177.174C797.212 176.145 796.19 175.315 795.01 174.756C793.829 174.197 792.527 173.926 791.214 173.967C789.523 174.076 787.908 174.689 786.588 175.723C785.269 176.756 784.309 178.16 783.841 179.743C783.792 179.937 783.808 180.14 783.885 180.325C783.963 180.509 784.098 180.665 784.272 180.77C784.775 181.186 785.373 181.482 786.015 181.632C787.403 181.918 788.79 182.179 790.19 182.416C792.914 182.877 795.651 183.252 798.401 183.539C803.987 184.122 809.607 184.329 815.223 184.159C817.091 184.098 818.897 184.037 820.609 183.236C821.855 182.639 822.919 181.737 823.696 180.618C824.791 179.031 825.316 177.137 825.189 175.231V175.231Z" fill="#E6E6E6"/>
<path d="M1042.49 372.006C1042.73 383.063 1041.16 394.087 1037.84 404.665C1037.73 405.049 1037.59 405.433 1037.45 405.818H968.988C969.966 401.134 971.52 396.581 973.615 392.257C979.312 380.504 988.614 370.446 997.799 360.457C1010.45 346.692 1022.8 333.041 1024.75 315.141C1029.76 322.57 1033.77 330.601 1036.66 339.03C1033.12 340.304 1029.87 342.239 1027.1 344.726C1026.33 345.427 1025.52 346.444 1025.91 347.416C1026.29 348.229 1027.31 348.5 1028.22 348.681C1030.4 349.088 1032.59 349.495 1034.77 349.879C1036.49 350.218 1038.24 350.535 1039.98 350.851C1041.51 357.808 1042.36 364.892 1042.49 372.006V372.006Z" fill="#F2F2F2"/>
<path d="M1100 364.683C1089.02 371.17 1082.05 381.205 1076.35 392.437C1071.39 393.536 1066.82 395.873 1063.07 399.218C1062.28 399.919 1061.47 400.936 1061.89 401.907C1062.24 402.721 1063.28 402.992 1064.19 403.173C1066.35 403.58 1068.56 403.987 1070.72 404.371C1070.51 404.846 1070.3 405.343 1070.1 405.818H997.543C1000.84 401.5 1004.48 397.449 1008.45 393.703C1009.31 392.867 1010.19 392.076 1011.1 391.262C1020.35 383.139 1030.97 376.624 1042.49 372.006C1060.65 364.629 1080.5 362.101 1100 364.683Z" fill="#F2F2F2"/>
<path d="M1009.64 405.818H945.036C944.683 400.79 944.714 395.743 945.129 390.72C947.71 359.688 965.081 330.126 991.288 312.225C987.94 323.82 989.66 335.346 993.148 346.918C992.66 347.077 992.172 347.212 991.73 347.393C988.192 348.667 984.945 350.602 982.173 353.088C981.405 353.789 980.591 354.806 980.987 355.778C981.335 356.592 982.382 356.863 983.289 357.044C985.475 357.451 987.661 357.857 989.823 358.242C991.567 358.581 993.311 358.897 995.055 359.236C995.869 359.372 996.683 359.53 997.497 359.688C997.613 359.959 997.683 360.208 997.799 360.457C1001.89 371.418 1006.36 382.47 1008.45 393.703C1008.97 396.522 1009.32 399.367 1009.52 402.224C1009.59 403.422 1009.64 404.62 1009.64 405.818Z" fill="#F2F2F2"/>
<path d="M657.563 372.006C657.803 383.063 656.233 394.087 652.912 404.665C652.796 405.049 652.657 405.433 652.517 405.818H584.058C585.036 401.134 586.59 396.581 588.685 392.257C594.382 380.504 603.684 370.446 612.869 360.457C625.519 346.692 637.867 333.041 639.821 315.141C644.835 322.57 648.837 330.601 651.727 339.03C648.189 340.304 644.942 342.239 642.169 344.726C641.402 345.427 640.588 346.444 640.983 347.416C641.355 348.229 642.378 348.5 643.285 348.681C645.471 349.088 647.657 349.495 649.843 349.879C651.564 350.218 653.308 350.535 655.052 350.851C656.585 357.808 657.426 364.892 657.563 372.006V372.006Z" fill="#F2F2F2"/>
<path d="M715.07 364.683C704.094 371.17 697.118 381.205 691.421 392.437C686.463 393.536 681.886 395.873 678.143 399.218C677.352 399.919 676.538 400.936 676.957 401.907C677.306 402.721 678.352 402.992 679.259 403.173C681.422 403.58 683.631 403.987 685.793 404.371C685.584 404.846 685.375 405.343 685.166 405.818H612.614C615.907 401.5 619.554 397.449 623.52 393.703C624.38 392.867 625.264 392.076 626.171 391.262C635.419 383.139 646.039 376.624 657.563 372.006C675.719 364.629 695.572 362.101 715.07 364.683V364.683Z" fill="#F2F2F2"/>
<path d="M624.706 405.818H560.106C559.753 400.79 559.785 395.743 560.199 390.72C562.78 359.688 580.151 330.126 606.358 312.225C603.01 323.82 604.73 335.346 608.218 346.918C607.73 347.077 607.242 347.212 606.8 347.393C603.262 348.667 600.015 350.602 597.243 353.088C596.475 353.789 595.661 354.806 596.057 355.778C596.405 356.592 597.452 356.863 598.359 357.044C600.545 357.451 602.731 357.857 604.893 358.242C606.637 358.581 608.381 358.897 610.125 359.236C610.939 359.372 611.753 359.53 612.567 359.688C612.683 359.959 612.753 360.208 612.869 360.457C616.962 371.418 621.427 382.47 623.52 393.703C624.038 396.522 624.395 399.367 624.589 402.224C624.659 403.422 624.706 404.62 624.706 405.818Z" fill="#F2F2F2"/>
<path d="M865.199 379.457L922.92 384.437L923.538 384.492V145.11C923.332 144.971 923.126 144.831 922.92 144.691C910.89 136.513 897.877 129.795 884.17 124.685L881.221 164.224L880.952 167.844L878.034 207.054L877.134 219.116L865.305 378.06L865.199 379.457Z" fill="#E6E6E6"/>
<path d="M722.456 140.652C722.044 140.907 721.631 141.163 721.219 141.43V384.492L722.456 384.383L779.552 379.457L779.446 378.06L767.617 219.116L766.717 207.054L763.798 167.844L763.53 164.224L760.437 122.76C747.097 127.254 734.349 133.259 722.456 140.652V140.652Z" fill="#E6E6E6"/>
<path d="M721.219 141.43C720.388 141.952 719.557 142.487 718.738 143.027V387.808C718.738 393.924 722.469 399.05 727.455 400.356C728.27 400.571 729.111 400.679 729.955 400.678H915.421C916.263 400.679 917.102 400.571 917.914 400.356C919.768 399.856 921.448 398.878 922.776 397.526C925.309 394.895 926.693 391.411 926.638 387.808V147.285C925.613 146.55 924.582 145.821 923.538 145.11C923.332 144.971 923.126 144.831 922.92 144.691V387.808C922.921 388.596 922.825 389.381 922.632 390.146C921.751 393.76 918.845 396.408 915.421 396.408H729.955C725.818 396.408 722.456 392.552 722.456 387.808V140.652C722.044 140.907 721.631 141.163 721.219 141.43Z" fill="#E6E6E6"/>
<path d="M924.778 164.226H720.595V167.845H924.778V164.226Z" fill="#E6E6E6"/>
<path d="M862.243 118.059C861.006 117.761 859.769 117.482 858.519 117.221V215.496H862.243V118.059Z" fill="#E6E6E6"/>
<path d="M786.857 116C785.613 116.225 784.37 116.456 783.133 116.705V215.496H786.857V116Z" fill="#E6E6E6"/>
<path d="M680.564 394.343C680.563 396.42 680.972 398.478 681.77 400.405C682.076 401.152 682.442 401.875 682.863 402.567C683.408 403.469 684.04 404.32 684.75 405.106C686.32 406.844 688.254 408.237 690.422 409.192C692.59 410.146 694.943 410.639 697.323 410.639H941.847C946.292 410.639 950.555 408.922 953.698 405.868C956.841 402.813 958.607 398.67 958.607 394.349C958.607 390.029 956.841 385.886 953.698 382.831C950.555 379.776 946.292 378.06 941.847 378.06H697.323C692.881 378.064 688.621 379.781 685.479 382.834C682.338 385.886 680.57 390.025 680.564 394.343V394.343Z" fill="#E6E6E6"/>
<path d="M720.596 219.118L923.537 219.118V207.053L720.596 207.053V219.118Z" fill="#E6E6E6"/>
<path d="M830.755 210.07H813.378C813.378 208.31 814.097 206.622 815.377 205.378C816.658 204.133 818.394 203.434 820.205 203.434H823.928C824.825 203.434 825.713 203.606 826.541 203.939C827.369 204.273 828.122 204.762 828.756 205.378C829.389 205.994 829.892 206.725 830.235 207.53C830.578 208.335 830.755 209.198 830.755 210.07V210.07H830.755Z" fill="#E6E6E6"/>
<path d="M550 403.648C555.429 409.9 561.3 415.775 567.572 421.231H1071.59C1077.86 415.775 1083.74 409.9 1089.16 403.648H550Z" fill="#3F3D56"/>
<path d="M797.886 344.85V407.14H842.784V344.85C842.785 344.402 842.638 343.966 842.365 343.605C842.091 343.244 841.706 342.978 841.266 342.846C841.058 342.779 840.841 342.746 840.622 342.749H800.055C799.77 342.748 799.488 342.802 799.226 342.907C798.963 343.013 798.724 343.167 798.522 343.363C798.321 343.558 798.161 343.79 798.052 344.045C797.943 344.3 797.886 344.574 797.886 344.85V344.85ZM815.408 366.253C815.42 365.025 815.93 363.852 816.828 362.987C817.725 362.123 818.938 361.639 820.201 361.639C821.464 361.639 822.677 362.123 823.574 362.987C824.472 363.852 824.982 365.025 824.994 366.253V373.481C824.987 374.712 824.479 375.891 823.581 376.759C822.683 377.628 821.468 378.115 820.201 378.115C818.934 378.115 817.719 377.628 816.82 376.759C815.922 375.891 815.414 374.712 815.408 373.481V366.253Z" fill="#2F2E41"/>
<path d="M797.749 405.148V411.155C797.75 411.466 797.877 411.764 798.103 411.985C798.329 412.205 798.635 412.33 798.955 412.333H841.716C842.036 412.332 842.343 412.207 842.569 411.986C842.795 411.765 842.922 411.466 842.922 411.155V405.148H797.749Z" fill="#3F3D56"/>
<path d="M727.255 251.002V364.735C727.256 366.184 727.849 367.574 728.904 368.599C729.958 369.624 731.388 370.2 732.879 370.201H906.285C907.776 370.2 909.206 369.624 910.26 368.599C911.315 367.574 911.908 366.184 911.909 364.735V251.002C911.905 249.554 911.312 248.166 910.258 247.143C909.203 246.12 907.775 245.544 906.285 245.542H732.879C731.389 245.544 729.961 246.12 728.907 247.143C727.853 248.166 727.259 249.554 727.255 251.002V251.002Z" fill="#3F3D56"/>
<path d="M731.323 252.417V363.332C731.325 364.106 731.642 364.849 732.205 365.396C732.768 365.944 733.532 366.252 734.329 366.253H904.842C905.638 366.252 906.402 365.944 906.966 365.396C907.529 364.849 907.846 364.106 907.847 363.332V252.417C907.847 251.642 907.531 250.898 906.967 250.35C906.404 249.801 905.639 249.492 904.842 249.49H734.329C733.531 249.492 732.767 249.801 732.203 250.35C731.64 250.898 731.323 251.642 731.323 252.417V252.417Z" fill="#F9A826"/>
<path d="M766.092 413.748C766.266 413.96 766.486 414.13 766.737 414.247C766.988 414.364 767.263 414.424 767.542 414.422H868.986C869.263 414.422 869.537 414.362 869.788 414.245C870.038 414.129 870.258 413.96 870.433 413.751C870.608 413.542 870.733 413.297 870.798 413.035C870.863 412.773 870.867 412.5 870.81 412.236L869.236 404.966C869.171 404.669 869.03 404.394 868.827 404.163C868.624 403.933 868.365 403.756 868.073 403.648C867.862 403.567 867.638 403.526 867.411 403.526H769.11C768.884 403.526 768.659 403.567 768.448 403.648C768.156 403.756 767.897 403.933 767.694 404.163C767.491 404.393 767.351 404.669 767.286 404.966L765.711 412.236C765.655 412.5 765.66 412.772 765.726 413.034C765.792 413.295 765.917 413.539 766.092 413.748Z" fill="#2F2E41"/>
<path d="M863.871 406.658H866.385C866.554 406.658 866.69 406.525 866.69 406.361V405.132C866.69 404.969 866.554 404.836 866.385 404.836H863.871C863.703 404.836 863.566 404.969 863.566 405.132V406.361C863.566 406.525 863.703 406.658 863.871 406.658Z" fill="#3F3D56"/>
<path d="M857.622 406.658H860.137C860.305 406.658 860.442 406.525 860.442 406.361V405.132C860.442 404.969 860.305 404.836 860.137 404.836H857.622C857.454 404.836 857.317 404.969 857.317 405.132V406.361C857.317 406.525 857.454 406.658 857.622 406.658Z" fill="#3F3D56"/>
<path d="M851.373 406.658H853.888C854.056 406.658 854.193 406.525 854.193 406.361V405.132C854.193 404.969 854.056 404.836 853.888 404.836H851.373C851.205 404.836 851.068 404.969 851.068 405.132V406.361C851.068 406.525 851.205 406.658 851.373 406.658Z" fill="#3F3D56"/>
<path d="M845.124 406.658H847.639C847.807 406.658 847.944 406.525 847.944 406.361V405.132C847.944 404.969 847.807 404.836 847.639 404.836H845.124C844.956 404.836 844.819 404.969 844.819 405.132V406.361C844.819 406.525 844.956 406.658 845.124 406.658Z" fill="#3F3D56"/>
<path d="M838.876 406.658H841.39C841.558 406.658 841.695 406.525 841.695 406.361V405.132C841.695 404.969 841.558 404.836 841.39 404.836H838.876C838.707 404.836 838.571 404.969 838.571 405.132V406.361C838.571 406.525 838.707 406.658 838.876 406.658Z" fill="#3F3D56"/>
<path d="M832.627 406.658H835.141C835.31 406.658 835.446 406.525 835.446 406.361V405.132C835.446 404.969 835.31 404.836 835.141 404.836H832.627C832.458 404.836 832.322 404.969 832.322 405.132V406.361C832.322 406.525 832.458 406.658 832.627 406.658Z" fill="#3F3D56"/>
<path d="M826.378 406.658H828.892C829.061 406.658 829.197 406.525 829.197 406.361V405.132C829.197 404.969 829.061 404.836 828.892 404.836H826.378C826.209 404.836 826.073 404.969 826.073 405.132V406.361C826.073 406.525 826.209 406.658 826.378 406.658Z" fill="#3F3D56"/>
<path d="M820.129 406.658H822.643C822.812 406.658 822.948 406.525 822.948 406.361V405.132C822.948 404.969 822.812 404.836 822.643 404.836H820.129C819.961 404.836 819.824 404.969 819.824 405.132V406.361C819.824 406.525 819.961 406.658 820.129 406.658Z" fill="#3F3D56"/>
<path d="M813.88 406.658H816.395C816.563 406.658 816.7 406.525 816.7 406.361V405.132C816.7 404.969 816.563 404.836 816.395 404.836H813.88C813.712 404.836 813.575 404.969 813.575 405.132V406.361C813.575 406.525 813.712 406.658 813.88 406.658Z" fill="#3F3D56"/>
<path d="M807.631 406.658H810.146C810.314 406.658 810.451 406.525 810.451 406.361V405.132C810.451 404.969 810.314 404.836 810.146 404.836H807.631C807.463 404.836 807.326 404.969 807.326 405.132V406.361C807.326 406.525 807.463 406.658 807.631 406.658Z" fill="#3F3D56"/>
<path d="M801.383 406.658H803.897C804.065 406.658 804.202 406.525 804.202 406.361V405.132C804.202 404.969 804.065 404.836 803.897 404.836H801.383C801.214 404.836 801.077 404.969 801.077 405.132V406.361C801.077 406.525 801.214 406.658 801.383 406.658Z" fill="#3F3D56"/>
<path d="M795.133 406.658H797.648C797.816 406.658 797.953 406.525 797.953 406.361V405.132C797.953 404.969 797.816 404.836 797.648 404.836H795.133C794.965 404.836 794.828 404.969 794.828 405.132V406.361C794.828 406.525 794.965 406.658 795.133 406.658Z" fill="#3F3D56"/>
<path d="M788.885 406.658H791.399C791.568 406.658 791.704 406.525 791.704 406.361V405.132C791.704 404.969 791.568 404.836 791.399 404.836H788.885C788.716 404.836 788.58 404.969 788.58 405.132V406.361C788.58 406.525 788.716 406.658 788.885 406.658Z" fill="#3F3D56"/>
<path d="M782.636 406.658H785.15C785.319 406.658 785.455 406.525 785.455 406.361V405.132C785.455 404.969 785.319 404.836 785.15 404.836H782.636C782.467 404.836 782.331 404.969 782.331 405.132V406.361C782.331 406.525 782.467 406.658 782.636 406.658Z" fill="#3F3D56"/>
<path d="M776.387 406.658H778.901C779.07 406.658 779.206 406.525 779.206 406.361V405.132C779.206 404.969 779.07 404.836 778.901 404.836H776.387C776.218 404.836 776.082 404.969 776.082 405.132V406.361C776.082 406.525 776.218 406.658 776.387 406.658Z" fill="#3F3D56"/>
<path d="M770.138 406.658H772.652C772.821 406.658 772.958 406.525 772.958 406.361V405.132C772.958 404.969 772.821 404.836 772.652 404.836H770.138C769.97 404.836 769.833 404.969 769.833 405.132V406.361C769.833 406.525 769.97 406.658 770.138 406.658Z" fill="#3F3D56"/>
<path d="M863.945 409.695H866.459C866.628 409.695 866.764 409.562 866.764 409.398V408.169C866.764 408.005 866.628 407.873 866.459 407.873H863.945C863.777 407.873 863.64 408.005 863.64 408.169V409.398C863.64 409.562 863.777 409.695 863.945 409.695Z" fill="#3F3D56"/>
<path d="M857.696 409.695H860.211C860.379 409.695 860.516 409.562 860.516 409.398V408.169C860.516 408.005 860.379 407.873 860.211 407.873H857.696C857.528 407.873 857.391 408.005 857.391 408.169V409.398C857.391 409.562 857.528 409.695 857.696 409.695Z" fill="#3F3D56"/>
<path d="M851.447 409.695H853.962C854.13 409.695 854.267 409.562 854.267 409.398V408.169C854.267 408.005 854.13 407.873 853.962 407.873H851.447C851.279 407.873 851.142 408.005 851.142 408.169V409.398C851.142 409.562 851.279 409.695 851.447 409.695Z" fill="#3F3D56"/>
<path d="M845.198 409.695H847.713C847.881 409.695 848.018 409.562 848.018 409.398V408.169C848.018 408.005 847.881 407.873 847.713 407.873H845.198C845.03 407.873 844.893 408.005 844.893 408.169V409.398C844.893 409.562 845.03 409.695 845.198 409.695Z" fill="#3F3D56"/>
<path d="M838.949 409.695H841.464C841.632 409.695 841.769 409.562 841.769 409.398V408.169C841.769 408.005 841.632 407.873 841.464 407.873H838.949C838.781 407.873 838.644 408.005 838.644 408.169V409.398C838.644 409.562 838.781 409.695 838.949 409.695Z" fill="#3F3D56"/>
<path d="M832.701 409.695H835.215C835.383 409.695 835.52 409.562 835.52 409.398V408.169C835.52 408.005 835.383 407.873 835.215 407.873H832.701C832.532 407.873 832.396 408.005 832.396 408.169V409.398C832.396 409.562 832.532 409.695 832.701 409.695Z" fill="#3F3D56"/>
<path d="M826.452 409.695H828.966C829.135 409.695 829.271 409.562 829.271 409.398V408.169C829.271 408.005 829.135 407.873 828.966 407.873H826.452C826.283 407.873 826.147 408.005 826.147 408.169V409.398C826.147 409.562 826.283 409.695 826.452 409.695Z" fill="#3F3D56"/>
<path d="M820.203 409.695H822.717C822.886 409.695 823.022 409.562 823.022 409.398V408.169C823.022 408.005 822.886 407.873 822.717 407.873H820.203C820.035 407.873 819.898 408.005 819.898 408.169V409.398C819.898 409.562 820.035 409.695 820.203 409.695Z" fill="#3F3D56"/>
<path d="M813.954 409.695H816.468C816.637 409.695 816.773 409.562 816.773 409.398V408.169C816.773 408.005 816.637 407.873 816.468 407.873H813.954C813.786 407.873 813.649 408.005 813.649 408.169V409.398C813.649 409.562 813.786 409.695 813.954 409.695Z" fill="#3F3D56"/>
<path d="M807.705 409.695H810.22C810.388 409.695 810.525 409.562 810.525 409.398V408.169C810.525 408.005 810.388 407.873 810.22 407.873H807.705C807.537 407.873 807.4 408.005 807.4 408.169V409.398C807.4 409.562 807.537 409.695 807.705 409.695Z" fill="#3F3D56"/>
<path d="M801.456 409.695H803.971C804.139 409.695 804.276 409.562 804.276 409.398V408.169C804.276 408.005 804.139 407.873 803.971 407.873H801.456C801.288 407.873 801.151 408.005 801.151 408.169V409.398C801.151 409.562 801.288 409.695 801.456 409.695Z" fill="#3F3D56"/>
<path d="M795.207 409.695H797.722C797.89 409.695 798.027 409.562 798.027 409.398V408.169C798.027 408.005 797.89 407.873 797.722 407.873H795.207C795.039 407.873 794.902 408.005 794.902 408.169V409.398C794.902 409.562 795.039 409.695 795.207 409.695Z" fill="#3F3D56"/>
<path d="M788.959 409.695H791.473C791.641 409.695 791.778 409.562 791.778 409.398V408.169C791.778 408.005 791.641 407.873 791.473 407.873H788.959C788.79 407.873 788.654 408.005 788.654 408.169V409.398C788.654 409.562 788.79 409.695 788.959 409.695Z" fill="#3F3D56"/>
<path d="M782.71 409.695H785.224C785.392 409.695 785.529 409.562 785.529 409.398V408.169C785.529 408.005 785.392 407.873 785.224 407.873H782.71C782.541 407.873 782.405 408.005 782.405 408.169V409.398C782.405 409.562 782.541 409.695 782.71 409.695Z" fill="#3F3D56"/>
<path d="M776.461 409.695H778.975C779.144 409.695 779.28 409.562 779.28 409.398V408.169C779.28 408.005 779.144 407.873 778.975 407.873H776.461C776.292 407.873 776.156 408.005 776.156 408.169V409.398C776.156 409.562 776.292 409.695 776.461 409.695Z" fill="#3F3D56"/>
<path d="M770.212 409.695H772.726C772.895 409.695 773.031 409.562 773.031 409.398V408.169C773.031 408.005 772.895 407.873 772.726 407.873H770.212C770.044 407.873 769.907 408.005 769.907 408.169V409.398C769.907 409.562 770.044 409.695 770.212 409.695Z" fill="#3F3D56"/>
<path d="M812.079 413.339H836.465C836.633 413.339 836.77 413.206 836.77 413.042V411.813C836.77 411.649 836.633 411.517 836.465 411.517H812.079C811.911 411.517 811.774 411.649 811.774 411.813V413.042C811.774 413.206 811.911 413.339 812.079 413.339Z" fill="#3F3D56"/>
<path d="M742.897 264.769H902.445C902.611 264.765 902.769 264.699 902.885 264.584C903.001 264.468 903.066 264.313 903.066 264.152C903.066 263.991 903.001 263.836 902.885 263.721C902.769 263.606 902.611 263.539 902.445 263.536H742.897C742.731 263.539 742.574 263.606 742.458 263.721C742.342 263.836 742.277 263.991 742.277 264.152C742.277 264.313 742.342 264.468 742.458 264.584C742.574 264.699 742.731 264.765 742.897 264.769V264.769Z" fill="#3F3D56"/>
<path d="M891.585 260.387C893.638 260.387 895.303 258.733 895.303 256.692C895.303 254.652 893.638 252.998 891.585 252.998C889.531 252.998 887.866 254.652 887.866 256.692C887.866 258.733 889.531 260.387 891.585 260.387Z" fill="#3F3D56"/>
<path d="M878.74 260.387C880.793 260.387 882.458 258.733 882.458 256.692C882.458 254.652 880.793 252.998 878.74 252.998C876.686 252.998 875.021 254.652 875.021 256.692C875.021 258.733 876.686 260.387 878.74 260.387Z" fill="#3F3D56"/>
<path d="M865.894 260.387C867.948 260.387 869.613 258.733 869.613 256.692C869.613 254.652 867.948 252.998 865.894 252.998C863.841 252.998 862.176 254.652 862.176 256.692C862.176 258.733 863.841 260.387 865.894 260.387Z" fill="#3F3D56"/>
<path d="M749.951 254.586C749.951 254.673 749.968 254.759 750.002 254.84C750.036 254.921 750.086 254.995 750.149 255.057C750.213 255.119 750.288 255.168 750.371 255.202C750.454 255.236 750.542 255.253 750.632 255.254H759.756C759.936 255.25 760.108 255.177 760.234 255.052C760.36 254.926 760.43 254.758 760.43 254.583C760.43 254.407 760.36 254.239 760.234 254.113C760.108 253.988 759.936 253.915 759.756 253.911H750.632C750.45 253.914 750.276 253.986 750.149 254.112C750.021 254.238 749.95 254.409 749.951 254.586V254.586Z" fill="#3F3D56"/>
<path d="M749.951 257.106C749.951 257.193 749.968 257.28 750.002 257.361C750.036 257.442 750.086 257.515 750.149 257.577C750.213 257.639 750.288 257.689 750.371 257.722C750.454 257.756 750.542 257.774 750.632 257.774H759.756C759.936 257.77 760.108 257.698 760.234 257.572C760.36 257.447 760.431 257.278 760.431 257.103C760.431 256.928 760.36 256.759 760.234 256.634C760.108 256.508 759.936 256.436 759.756 256.432H750.632C750.45 256.434 750.276 256.506 750.149 256.632C750.021 256.759 749.95 256.929 749.951 257.106V257.106Z" fill="#3F3D56"/>
<path d="M749.951 259.62C749.95 259.798 750.021 259.968 750.149 260.094C750.276 260.22 750.45 260.292 750.632 260.295H759.756C759.936 260.291 760.108 260.218 760.234 260.093C760.36 259.967 760.43 259.799 760.43 259.624C760.43 259.448 760.36 259.28 760.234 259.154C760.108 259.029 759.936 258.956 759.756 258.952H750.632C750.542 258.953 750.454 258.97 750.371 259.004C750.288 259.038 750.213 259.087 750.149 259.149C750.086 259.211 750.036 259.285 750.002 259.366C749.968 259.447 749.951 259.533 749.951 259.62V259.62Z" fill="#3F3D56"/>
<path d="M752.771 279.1H749.493C748.499 279.1 747.693 279.883 747.693 280.849C747.693 281.815 748.499 282.599 749.493 282.599H752.771C753.765 282.599 754.57 281.815 754.57 280.849C754.57 279.883 753.765 279.1 752.771 279.1Z" fill="#E6E6E6"/>
<path d="M790.264 279.1H786.986C785.992 279.1 785.186 279.883 785.186 280.849C785.186 281.815 785.992 282.599 786.986 282.599H790.264C791.258 282.599 792.064 281.815 792.064 280.849C792.064 279.883 791.258 279.1 790.264 279.1Z" fill="#E6E6E6"/>
<path d="M800.887 279.1H797.609C796.615 279.1 795.809 279.883 795.809 280.849C795.809 281.815 796.615 282.599 797.609 282.599H800.887C801.881 282.599 802.687 281.815 802.687 280.849C802.687 279.883 801.881 279.1 800.887 279.1Z" fill="#E6E6E6"/>
<path d="M780.066 278.809H759.691C758.697 278.809 757.891 279.592 757.891 280.558C757.891 281.524 758.697 282.307 759.691 282.307H780.066C781.06 282.307 781.865 281.524 781.865 280.558C781.865 279.592 781.06 278.809 780.066 278.809Z" fill="#E6E6E6"/>
<path d="M830.056 278.809H809.681C808.688 278.809 807.882 279.592 807.882 280.558C807.882 281.524 808.688 282.307 809.681 282.307H830.056C831.05 282.307 831.856 281.524 831.856 280.558C831.856 279.592 831.05 278.809 830.056 278.809Z" fill="#E6E6E6"/>
<path d="M762.769 286.996H759.491C758.497 286.996 757.691 287.779 757.691 288.745C757.691 289.711 758.497 290.494 759.491 290.494H762.769C763.763 290.494 764.568 289.711 764.568 288.745C764.568 287.779 763.763 286.996 762.769 286.996Z" fill="#E6E6E6"/>
<path d="M800.262 286.996H796.984C795.99 286.996 795.184 287.779 795.184 288.745C795.184 289.711 795.99 290.494 796.984 290.494H800.262C801.256 290.494 802.062 289.711 802.062 288.745C802.062 287.779 801.256 286.996 800.262 286.996Z" fill="#E6E6E6"/>
<path d="M810.885 286.996H807.607C806.613 286.996 805.807 287.779 805.807 288.745C805.807 289.711 806.613 290.494 807.607 290.494H810.885C811.879 290.494 812.685 289.711 812.685 288.745C812.685 287.779 811.879 286.996 810.885 286.996Z" fill="#E6E6E6"/>
<path d="M790.064 286.704H769.689C768.695 286.704 767.889 287.487 767.889 288.453C767.889 289.419 768.695 290.203 769.689 290.203H790.064C791.058 290.203 791.863 289.419 791.863 288.453C791.863 287.487 791.058 286.704 790.064 286.704Z" fill="#E6E6E6"/>
<path d="M840.055 286.704H819.68C818.686 286.704 817.88 287.487 817.88 288.453C817.88 289.419 818.686 290.203 819.68 290.203H840.055C841.049 290.203 841.854 289.419 841.854 288.453C841.854 287.487 841.049 286.704 840.055 286.704Z" fill="#E6E6E6"/>
<path d="M772.767 294.891H769.489C768.495 294.891 767.689 295.675 767.689 296.641C767.689 297.607 768.495 298.39 769.489 298.39H772.767C773.761 298.39 774.567 297.607 774.567 296.641C774.567 295.675 773.761 294.891 772.767 294.891Z" fill="#E6E6E6"/>
<path d="M810.26 294.891H806.982C805.988 294.891 805.182 295.675 805.182 296.641C805.182 297.607 805.988 298.39 806.982 298.39H810.26C811.254 298.39 812.06 297.607 812.06 296.641C812.06 295.675 811.254 294.891 810.26 294.891Z" fill="#E6E6E6"/>
<path d="M820.883 294.891H817.605C816.611 294.891 815.805 295.675 815.805 296.641C815.805 297.607 816.611 298.39 817.605 298.39H820.883C821.877 298.39 822.683 297.607 822.683 296.641C822.683 295.675 821.877 294.891 820.883 294.891Z" fill="#E6E6E6"/>
<path d="M800.062 294.6H779.687C778.693 294.6 777.887 295.383 777.887 296.349C777.887 297.315 778.693 298.098 779.687 298.098H800.062C801.056 298.098 801.862 297.315 801.862 296.349C801.862 295.383 801.056 294.6 800.062 294.6Z" fill="#E6E6E6"/>
<path d="M850.053 294.6H829.678C828.684 294.6 827.878 295.383 827.878 296.349C827.878 297.315 828.684 298.098 829.678 298.098H850.053C851.047 298.098 851.852 297.315 851.852 296.349C851.852 295.383 851.047 294.6 850.053 294.6Z" fill="#E6E6E6"/>
<path d="M782.765 302.787H779.487C778.493 302.787 777.687 303.57 777.687 304.536C777.687 305.502 778.493 306.285 779.487 306.285H782.765C783.759 306.285 784.565 305.502 784.565 304.536C784.565 303.57 783.759 302.787 782.765 302.787Z" fill="#E6E6E6"/>
<path d="M820.258 302.787H816.98C815.986 302.787 815.18 303.57 815.18 304.536C815.18 305.502 815.986 306.285 816.98 306.285H820.258C821.252 306.285 822.058 305.502 822.058 304.536C822.058 303.57 821.252 302.787 820.258 302.787Z" fill="#E6E6E6"/>
<path d="M830.881 302.787H827.603C826.609 302.787 825.803 303.57 825.803 304.536C825.803 305.502 826.609 306.285 827.603 306.285H830.881C831.875 306.285 832.681 305.502 832.681 304.536C832.681 303.57 831.875 302.787 830.881 302.787Z" fill="#E6E6E6"/>
<path d="M810.06 302.495H789.685C788.691 302.495 787.885 303.278 787.885 304.245C787.885 305.211 788.691 305.994 789.685 305.994H810.06C811.054 305.994 811.86 305.211 811.86 304.245C811.86 303.278 811.054 302.495 810.06 302.495Z" fill="#E6E6E6"/>
<path d="M790.264 334.183H786.986C785.992 334.183 785.186 334.966 785.186 335.932C785.186 336.898 785.992 337.681 786.986 337.681H790.264C791.258 337.681 792.064 336.898 792.064 335.932C792.064 334.966 791.258 334.183 790.264 334.183Z" fill="#E6E6E6"/>
<path d="M800.887 334.183H797.609C796.615 334.183 795.809 334.966 795.809 335.932C795.809 336.898 796.615 337.681 797.609 337.681H800.887C801.881 337.681 802.687 336.898 802.687 335.932C802.687 334.966 801.881 334.183 800.887 334.183Z" fill="#E6E6E6"/>
<path d="M830.056 334.475H809.681C808.688 334.475 807.882 335.258 807.882 336.224C807.882 337.19 808.688 337.973 809.681 337.973H830.056C831.05 337.973 831.856 337.19 831.856 336.224C831.856 335.258 831.05 334.475 830.056 334.475Z" fill="#E6E6E6"/>
<path d="M752.771 334.183H749.493C748.499 334.183 747.693 334.966 747.693 335.932C747.693 336.898 748.499 337.681 749.493 337.681H752.771C753.765 337.681 754.57 336.898 754.57 335.932C754.57 334.966 753.765 334.183 752.771 334.183Z" fill="#E6E6E6"/>
<path d="M780.066 334.475H759.691C758.697 334.475 757.891 335.258 757.891 336.224C757.891 337.19 758.697 337.973 759.691 337.973H780.066C781.06 337.973 781.865 337.19 781.865 336.224C781.865 335.258 781.06 334.475 780.066 334.475Z" fill="#E6E6E6"/>
<path d="M762.769 326.288H759.491C758.497 326.288 757.691 327.071 757.691 328.037C757.691 329.003 758.497 329.786 759.491 329.786H762.769C763.763 329.786 764.568 329.003 764.568 328.037C764.568 327.071 763.763 326.288 762.769 326.288Z" fill="#E6E6E6"/>
<path d="M800.262 326.288H796.984C795.99 326.288 795.184 327.071 795.184 328.037C795.184 329.003 795.99 329.786 796.984 329.786H800.262C801.256 329.786 802.062 329.003 802.062 328.037C802.062 327.071 801.256 326.288 800.262 326.288Z" fill="#E6E6E6"/>
<path d="M810.885 326.288H807.607C806.613 326.288 805.807 327.071 805.807 328.037C805.807 329.003 806.613 329.786 807.607 329.786H810.885C811.879 329.786 812.685 329.003 812.685 328.037C812.685 327.071 811.879 326.288 810.885 326.288Z" fill="#E6E6E6"/>
<path d="M790.064 326.579H769.689C768.695 326.579 767.889 327.362 767.889 328.328C767.889 329.294 768.695 330.078 769.689 330.078H790.064C791.058 330.078 791.863 329.294 791.863 328.328C791.863 327.362 791.058 326.579 790.064 326.579Z" fill="#E6E6E6"/>
<path d="M772.767 318.392H769.489C768.495 318.392 767.689 319.175 767.689 320.141C767.689 321.107 768.495 321.89 769.489 321.89H772.767C773.761 321.89 774.567 321.107 774.567 320.141C774.567 319.175 773.761 318.392 772.767 318.392Z" fill="#E6E6E6"/>
<path d="M810.26 318.392H806.982C805.988 318.392 805.182 319.175 805.182 320.141C805.182 321.107 805.988 321.89 806.982 321.89H810.26C811.254 321.89 812.06 321.107 812.06 320.141C812.06 319.175 811.254 318.392 810.26 318.392Z" fill="#E6E6E6"/>
<path d="M820.883 318.392H817.605C816.611 318.392 815.805 319.175 815.805 320.141C815.805 321.107 816.611 321.89 817.605 321.89H820.883C821.877 321.89 822.683 321.107 822.683 320.141C822.683 319.175 821.877 318.392 820.883 318.392Z" fill="#E6E6E6"/>
<path d="M800.062 318.684H779.687C778.693 318.684 777.887 319.467 777.887 320.433C777.887 321.399 778.693 322.182 779.687 322.182H800.062C801.056 322.182 801.862 321.399 801.862 320.433C801.862 319.467 801.056 318.684 800.062 318.684Z" fill="#E6E6E6"/>
<path d="M782.765 310.496H779.487C778.493 310.496 777.687 311.28 777.687 312.246C777.687 313.212 778.493 313.995 779.487 313.995H782.765C783.759 313.995 784.565 313.212 784.565 312.246C784.565 311.28 783.759 310.496 782.765 310.496Z" fill="#E6E6E6"/>
<path d="M820.258 310.496H816.98C815.986 310.496 815.18 311.28 815.18 312.246C815.18 313.212 815.986 313.995 816.98 313.995H820.258C821.252 313.995 822.058 313.212 822.058 312.246C822.058 311.28 821.252 310.496 820.258 310.496Z" fill="#E6E6E6"/>
<path d="M830.881 310.496H827.603C826.609 310.496 825.803 311.28 825.803 312.246C825.803 313.212 826.609 313.995 827.603 313.995H830.881C831.875 313.995 832.681 313.212 832.681 312.246C832.681 311.28 831.875 310.496 830.881 310.496Z" fill="#E6E6E6"/>
<path d="M810.06 310.788H789.685C788.691 310.788 787.885 311.571 787.885 312.537C787.885 313.503 788.691 314.286 789.685 314.286H810.06C811.054 314.286 811.86 313.503 811.86 312.537C811.86 311.571 811.054 310.788 810.06 310.788Z" fill="#E6E6E6"/>
<path d="M768.655 447.585C768.518 447.652 768.38 447.719 768.243 447.779C767.374 448.199 766.499 448.611 765.618 449.018C762.981 450.239 760.311 451.399 757.607 452.499C750.493 455.391 743.194 457.831 735.755 459.805C734.505 452.231 733.293 434.369 732.131 421.232C731.912 418.76 731.693 416.458 731.474 414.424C731.267 411.753 730.872 409.098 730.293 406.48C730.237 406.274 730.155 406.077 730.05 405.89C730.168 406.941 730.293 410.075 730.412 414.424C730.475 416.458 730.531 418.76 730.593 421.232C730.887 433.877 731.193 451.083 731.499 460.88C730.631 461.087 729.756 461.293 728.881 461.487C728.331 461.615 727.775 461.736 727.219 461.852C726.544 461.998 725.869 462.143 725.194 462.277C724.488 462.423 723.782 462.562 723.076 462.696C711.537 464.899 699.804 466.006 688.045 466C687.264 466 686.489 465.994 685.708 465.988C685.47 465.988 685.233 465.982 684.989 465.976C684.302 465.964 683.589 465.951 682.865 465.933C668.968 465.56 655.162 463.626 641.722 460.169L642.266 421.232L642.359 414.424L642.397 411.842C642.087 412.673 641.902 413.542 641.847 414.424C641.628 416.082 641.403 418.432 641.178 421.232C640.322 432.019 639.441 449.419 638.529 459.319C627.725 456.331 619.826 453.604 609.953 448.806C609.572 448.624 609.184 448.435 608.803 448.247C608.872 447.779 608.947 447.312 609.015 446.832C610.134 439.276 608.815 429.443 610.053 421.232C610.996 414.897 611.971 408.812 612.952 403.649C614.14 397.436 615.346 392.553 616.539 390.178C617.914 387.439 619.289 384.742 620.62 382.161C621.195 381.05 621.759 379.958 622.313 378.887C622.613 378.31 622.913 377.74 623.207 377.181C624.544 374.636 625.806 372.286 626.962 370.202C627.775 368.739 628.524 367.415 629.212 366.255C630.018 364.888 630.73 363.758 631.318 362.902C635.656 356.51 642.112 351.751 649.614 349.413L649.802 349.364L649.983 349.437L650.189 349.528L662.1 345.295L667.417 332.85L694.731 331.216L699.143 334.478L701.399 336.148L703.804 337.928L708.229 341.201L709.485 341.578L711.353 342.137L724.132 345.951L724.263 345.896L724.451 345.945C731.278 348.069 737.254 352.209 741.548 357.788C741.972 358.323 742.366 358.875 742.747 359.434C743.785 360.928 745.184 363.291 746.834 366.255C747.515 367.475 748.234 368.799 748.99 370.202C749.446 371.047 753.383 382.987 757.213 395.183C760.794 406.601 764.281 418.244 764.737 421.232C764.818 421.785 764.906 422.343 764.987 422.896C765.506 426.352 766.018 429.832 766.512 433.227C767.243 438.262 767.955 443.121 768.636 447.464C768.643 447.506 768.649 447.543 768.655 447.585Z" fill="#3F3D56"/>
<path opacity="0.2" d="M739.709 403.621L734.399 383.705L729.711 400.891L739.709 403.621Z" fill="black"/>
<path d="M559.892 403.39C560.167 404.169 560.689 404.844 561.383 405.316C562.078 405.789 562.908 406.035 563.755 406.021L580.31 405.607C581.163 405.59 581.989 405.306 582.662 404.796C583.336 404.287 583.822 403.579 584.047 402.778L586.39 378.431C587.221 378.797 588.126 378.978 589.038 378.96C590.639 378.921 592.158 378.265 593.261 377.138C594.365 376.01 594.962 374.503 594.922 372.947C594.882 371.391 594.207 369.914 593.047 368.842C591.887 367.77 590.336 367.189 588.735 367.228C588.37 367.227 588.007 367.264 587.65 367.338C587.262 366.93 586.791 366.606 586.266 366.386C585.742 366.166 585.176 366.055 584.604 366.06L559.14 366.7C558.929 366.707 558.718 366.732 558.512 366.775C557.953 366.877 557.424 367.093 556.958 367.41C556.493 367.726 556.103 368.136 555.815 368.612C555.526 369.088 555.346 369.618 555.286 370.167C555.226 370.716 555.287 371.271 555.467 371.795L559.892 403.39ZM586.87 376.778L588.537 370.976C588.727 370.306 588.731 369.599 588.55 368.927C588.631 368.926 588.702 368.889 588.783 368.889C589.926 368.866 591.032 369.284 591.858 370.053C592.684 370.821 593.163 371.876 593.189 372.987C593.216 374.098 592.789 375.174 592 375.978C591.212 376.783 590.128 377.252 588.985 377.281C588.246 377.303 587.515 377.129 586.87 376.778V376.778Z" fill="#2F2E41"/>
<path d="M558.512 366.775C559.054 369.79 565.154 371.91 572.488 371.541C579.232 371.239 584.747 368.938 585.757 366.21C585.383 366.102 584.994 366.052 584.604 366.06L559.14 366.7C558.929 366.707 558.718 366.732 558.512 366.775V366.775Z" fill="#3F3D56"/>
<path d="M573.832 390.011C573.865 390.003 573.897 389.989 573.926 389.971L577.521 387.684C577.565 387.656 577.6 387.619 577.625 387.574C577.65 387.53 577.663 387.48 577.663 387.43C577.663 387.38 577.65 387.33 577.625 387.286C577.6 387.241 577.565 387.204 577.521 387.176L573.785 384.797C573.75 384.775 573.712 384.76 573.672 384.752C573.631 384.745 573.59 384.745 573.549 384.753C573.509 384.761 573.471 384.777 573.437 384.799C573.403 384.822 573.374 384.851 573.351 384.884C573.329 384.917 573.313 384.955 573.305 384.994C573.298 385.033 573.298 385.074 573.307 385.113C573.315 385.152 573.332 385.189 573.355 385.222C573.378 385.255 573.408 385.283 573.442 385.305L576.78 387.43L573.584 389.463C573.522 389.502 573.477 389.562 573.456 389.63C573.435 389.699 573.439 389.773 573.469 389.839C573.499 389.905 573.551 389.958 573.618 389.99C573.684 390.021 573.76 390.029 573.832 390.011H573.832Z" fill="#F9A826"/>
<path d="M568.154 390.266C568.214 390.251 568.268 390.219 568.31 390.174C568.351 390.129 568.378 390.073 568.387 390.013C568.395 389.953 568.385 389.892 568.357 389.838C568.33 389.783 568.286 389.738 568.232 389.708L564.919 387.862L568.122 385.549C568.154 385.525 568.182 385.496 568.203 385.461C568.224 385.427 568.238 385.389 568.244 385.35C568.25 385.31 568.248 385.27 568.238 385.232C568.228 385.193 568.21 385.157 568.186 385.125C568.162 385.093 568.131 385.066 568.096 385.045C568.06 385.025 568.021 385.011 567.981 385.005C567.94 385 567.899 385.002 567.859 385.011C567.819 385.021 567.782 385.038 567.749 385.062L564.163 387.651C564.121 387.681 564.088 387.721 564.066 387.766C564.044 387.812 564.034 387.862 564.037 387.913C564.04 387.963 564.056 388.012 564.084 388.054C564.111 388.097 564.149 388.133 564.194 388.158L567.921 390.235C567.992 390.274 568.075 390.285 568.154 390.266V390.266Z" fill="#F9A826"/>
<path d="M573.474 392.016C573.505 392.008 573.533 391.996 573.56 391.981C573.595 391.96 573.626 391.933 573.65 391.9C573.674 391.868 573.692 391.832 573.701 391.793C573.711 391.754 573.713 391.714 573.706 391.675C573.7 391.635 573.686 391.597 573.665 391.563L568.568 383.42C568.525 383.351 568.456 383.302 568.375 383.283C568.295 383.265 568.21 383.278 568.139 383.319C568.069 383.361 568.018 383.428 567.998 383.506C567.979 383.585 567.992 383.667 568.034 383.736L573.131 391.879C573.165 391.935 573.218 391.978 573.279 392.002C573.341 392.027 573.41 392.032 573.474 392.016V392.016Z" fill="#F9A826"/>
<path d="M1040.63 448.246C1040.25 448.434 1039.86 448.622 1039.48 448.804C1029.61 453.603 1021.71 456.33 1010.9 459.318C1009.99 449.418 1009.11 432.017 1008.25 421.231C1008.03 418.431 1007.8 416.08 1007.58 414.422C1007.53 413.541 1007.34 412.671 1007.03 411.841L1007.07 414.422L1007.17 421.231L1007.71 460.168C994.27 463.624 980.464 465.558 966.567 465.932C965.842 465.95 965.13 465.962 964.443 465.974C964.199 465.98 963.961 465.986 963.724 465.986C962.943 465.993 962.168 465.999 961.387 465.999C946.742 466.009 932.15 464.29 917.932 460.879C918.239 451.082 918.545 433.876 918.838 421.231C918.901 418.759 918.957 416.457 919.02 414.422C919.138 410.074 919.263 406.94 919.382 405.889C919.277 406.075 919.195 406.273 919.138 406.478C918.56 409.097 918.165 411.751 917.957 414.422C917.739 416.457 917.52 418.759 917.301 421.231C916.139 434.368 914.927 452.23 913.677 459.804C906.238 457.83 898.939 455.389 891.825 452.497C888.075 450.979 884.393 449.341 880.777 447.584C881.464 443.211 882.183 438.309 882.92 433.226C883.495 429.284 884.088 425.233 884.695 421.231C885.632 415.048 917.476 348.282 924.981 345.943L925.169 345.895L925.3 345.949L938.079 342.135L939.947 341.577L941.203 341.2L945.627 337.926L948.033 336.147L950.289 334.477L954.701 331.215L982.014 332.849L987.332 345.294L999.243 349.527L999.449 349.436L999.63 349.363L999.817 349.411C1007.32 351.749 1013.78 356.509 1018.11 362.901C1018.7 363.757 1019.41 364.887 1020.22 366.253C1020.91 367.413 1021.66 368.737 1022.47 370.201C1023.63 372.284 1024.89 374.635 1026.23 377.179C1026.52 377.738 1026.82 378.309 1027.12 378.886C1027.67 379.955 1028.24 381.046 1028.81 382.16C1030.14 384.741 1031.52 387.438 1032.89 390.177C1034.09 392.552 1035.29 397.435 1036.48 403.648C1037.46 408.81 1038.44 414.896 1039.38 421.231C1040.62 429.442 1039.3 439.275 1040.42 446.831C1040.49 447.31 1040.56 447.778 1040.63 448.246Z" fill="#3F3D56"/>
<path d="M960.522 326.748C978.066 326.748 992.289 312.924 992.289 295.872C992.289 278.82 978.066 264.997 960.522 264.997C942.977 264.997 928.755 278.82 928.755 295.872C928.755 312.924 942.977 326.748 960.522 326.748Z" fill="#FFB6B6"/>
<path opacity="0.2" d="M909.721 403.621L915.031 383.705L919.72 400.891L909.721 403.621Z" fill="black"/>
<path d="M1051.01 390.644C1049.11 416.08 1051.08 427.28 1040.6 448.252C1031.06 452.79 1021.12 456.494 1010.9 459.318C1009.84 459.609 1008.78 459.893 1007.71 460.168C994.27 463.624 980.464 465.558 966.567 465.932C965.843 465.95 965.13 465.962 964.443 465.974C964.199 465.98 963.962 465.986 963.724 465.986C962.943 465.993 962.168 465.999 961.387 465.999C946.742 466.009 932.15 464.29 917.933 460.879C916.508 460.539 915.089 460.18 913.677 459.804C906.238 457.83 898.939 455.389 891.825 452.497C888.075 450.979 884.393 449.341 880.777 447.584C879.958 447.183 879.14 446.782 878.333 446.369C874.19 439.287 871.835 430.675 871.785 420.326C874.653 402.494 1044.68 375.266 1051.01 390.644Z" fill="#2F2E41"/>
<path opacity="0.2" d="M1051.01 395.001C1051.11 393.426 1051.22 391.799 1051.34 390.105C1045.01 374.727 874.98 401.955 872.112 419.787C872.12 421.422 872.192 423.008 872.313 424.557C879.259 406.957 1040.78 381.079 1051.01 395.001Z" fill="black"/>
<path d="M867.556 391.844L881.512 385.062L869.882 354.542L866.817 339.151C866.419 337.151 865.488 335.288 864.117 333.748C862.746 332.207 860.983 331.044 859.004 330.373C857.025 329.703 854.9 329.549 852.841 329.926C850.782 330.304 848.861 331.201 847.269 332.526V332.526C844.912 334.49 843.431 337.268 843.141 340.273C842.85 343.278 843.772 346.275 845.712 348.632L857.089 362.455L867.556 391.844Z" fill="#FFB6B6"/>
<path d="M881.512 379.41L862.904 388.453L877.026 431.459C878.04 434.547 879.858 437.328 882.303 439.533C884.749 441.737 887.738 443.29 890.983 444.041C894.984 444.967 899.184 444.63 902.975 443.08C906.765 441.53 909.949 438.846 912.065 435.419L949.511 373.035C952.165 368.736 952.984 363.6 951.794 358.722C950.603 353.844 947.498 349.612 943.14 346.93V346.93C940.797 345.487 938.167 344.541 935.422 344.151C932.677 343.762 929.879 343.938 927.208 344.67C924.538 345.401 922.057 346.671 919.925 348.396C917.793 350.121 916.059 352.263 914.835 354.683L891.979 402.018L881.512 379.41Z" fill="#3F3D56"/>
<path d="M680.918 324.617C700.222 324.617 715.871 309.407 715.871 290.645C715.871 271.883 700.222 256.673 680.918 256.673C661.614 256.673 645.965 271.883 645.965 290.645C645.965 309.407 661.614 324.617 680.918 324.617Z" fill="#A0616A"/>
<path d="M646.385 267.234C649.227 263.511 653.312 260.864 656.436 257.362C658.151 255.44 659.574 253.262 661.501 251.542C665.082 248.345 670.09 247.036 674.949 246.873C680.274 246.74 685.557 247.827 690.37 250.047C695.182 252.267 699.389 255.557 702.651 259.65C705.191 258.203 707.731 256.756 710.271 255.308C711.274 257.875 712.277 260.442 713.281 263.009C714.104 262.314 715.155 261.924 716.246 261.909C717.337 261.894 718.398 262.255 719.241 262.928C720.085 263.601 720.655 264.542 720.853 265.585C721.05 266.628 720.861 267.706 720.319 268.626C720.924 266.811 723.693 266.426 725.22 267.625C726.747 268.824 727.156 270.958 726.907 272.851C726.594 274.927 725.65 276.865 724.195 278.415C722.74 279.966 720.841 281.058 718.743 281.551C715.428 282.269 711.571 281.515 708.918 283.575C706.791 285.227 706.149 288.235 703.979 289.832C701.304 291.8 697.524 290.89 694.199 291.325C688.383 292.086 683.777 297.868 684.476 303.531C683.95 301.744 683.397 299.905 682.203 298.454C681.008 297.002 678.996 296.02 677.164 296.554C674.136 297.436 673.641 301.448 674.375 304.436C676.321 312.362 683.698 325.174 683.698 325.174C674.12 328.846 662.709 325.374 655.318 318.405C647.928 311.437 644.079 301.57 642.403 291.697C640.981 283.324 641.183 274.05 646.385 267.234Z" fill="#2F2E41"/>
<path d="M1000.33 312.893C1006.98 298.074 1003.21 284.438 995.108 277.205V277.199C991.921 270.257 987.684 264.9 982.835 263.643C980.492 262.179 978.217 260.46 975.693 259.585C974.517 259.158 973.264 258.966 972.009 259.021C970.755 259.076 969.525 259.378 968.394 259.907L967.107 259.573C966.013 256.858 964.732 256.804 963.307 258.589C957.821 256.105 952.878 254.994 948.479 254.994C934.131 254.994 925.645 266.801 923.396 281.074L935.387 284.177L939.555 277.721L937.631 284.76L944.248 286.467C954.321 299.215 942.267 328.623 926.989 344.985C930.626 344.007 934.248 343.181 937.856 342.507L950.966 323.825L942.842 340.831C947.06 340.23 952.44 340.807 958.321 341.967C960.302 339.452 961.345 336.1 960.32 333.111C961.996 336.263 963.151 339.651 963.745 343.151C976.155 346.097 993.083 347.609 1002.21 348.726C1009.58 346.388 1009.6 319.975 1000.33 312.893Z" fill="#2F2E41"/>
<path d="M1004.66 262.488C1009.53 273.088 999.701 277.647 990.697 277.518C982.562 277.402 975.648 271.847 975.232 263.949C975.033 260.157 976.392 256.443 979.01 253.624C981.628 250.805 985.291 249.112 989.193 248.918C997.319 248.515 1001.34 255.267 1004.66 262.488Z" fill="#2F2E41"/>
<path d="M778.697 435.047L770.674 422.04L797.351 402.369L808.443 390.987C809.884 389.509 811.699 388.423 813.707 387.84C815.714 387.256 817.844 387.195 819.884 387.663C821.924 388.13 823.801 389.11 825.329 390.504C826.858 391.897 827.983 393.657 828.592 395.605V395.605C829.495 398.493 829.209 401.609 827.793 404.295C826.377 406.982 823.943 409.028 821.005 410.003L803.769 415.723L778.697 435.047Z" fill="#A0616A"/>
<path d="M784.496 434.618L772.004 444.737L768.636 447.464L768.243 447.779C767.374 448.198 766.499 448.612 765.618 449.018C762.981 450.239 760.311 451.399 757.607 452.499C750.493 455.39 743.194 457.831 735.755 459.805C734.343 460.182 732.924 460.54 731.499 460.88C730.631 461.086 729.756 461.293 728.881 461.487C728.331 461.615 727.775 461.736 727.219 461.852C726.544 461.998 725.869 462.143 725.194 462.277C724.488 462.423 723.782 462.562 723.076 462.696C721.176 460.939 719.663 458.825 718.63 456.482C717.596 454.139 717.064 451.616 717.064 449.067C717.064 448.903 717.064 448.733 717.071 448.563L719.077 398.56L719.964 376.397C720.101 371.386 722.249 366.624 725.949 363.131C729.649 359.638 734.608 357.69 739.767 357.703C740.366 357.703 740.96 357.733 741.548 357.788C741.972 358.323 742.366 358.875 742.747 359.434C743.785 360.928 745.184 363.291 746.834 366.255C747.515 367.475 748.234 368.799 748.99 370.202C749.446 371.047 753.383 382.987 757.213 395.183L755.526 407.919L752.477 430.877L764.987 422.896L773.798 417.272L774.841 418.967L777.56 423.376L782.809 431.879L784.496 434.618Z" fill="#3F3D56"/>
<path d="M777.647 420.327C777.641 421.36 777.616 422.374 777.56 423.376C777.43 426.14 777.1 428.892 776.573 431.612C775.71 436.178 774.171 440.599 772.005 444.737C771.717 445.289 771.411 445.836 771.099 446.37C770.292 446.783 769.474 447.184 768.655 447.585C768.518 447.652 768.38 447.719 768.243 447.78C764.762 449.462 761.217 451.035 757.607 452.499C750.493 455.391 743.194 457.831 735.755 459.805C734.343 460.182 732.924 460.54 731.5 460.88C728.719 461.548 725.911 462.154 723.076 462.696C711.537 464.899 699.805 466.006 688.045 466C687.264 466 686.489 465.994 685.708 465.988C685.47 465.988 685.233 465.982 684.989 465.976C684.302 465.964 683.589 465.951 682.865 465.933C668.968 465.56 655.162 463.626 641.722 460.169C640.654 459.896 639.589 459.613 638.529 459.319C628.312 456.495 618.375 452.792 608.834 448.253C598.349 427.281 600.317 416.082 598.417 390.646C602.317 381.177 668.286 387.864 719.077 398.56C732.862 401.463 745.522 404.664 755.526 407.919C765.862 411.278 773.354 414.691 776.291 417.898C776.978 418.562 777.449 419.406 777.647 420.327V420.327Z" fill="#2F2E41"/>
<path opacity="0.2" d="M598.421 395.001C598.324 393.426 598.216 391.799 598.089 390.105C604.425 374.727 774.451 401.955 777.319 419.787C777.311 421.422 777.239 423.008 777.118 424.557C770.172 406.957 608.646 381.079 598.421 395.001Z" fill="black"/>
</g>
<defs>
<filter id="filter0_d_43_3" x="430" y="0" width="776" height="590" filterUnits="userSpaceOnUse" color-interpolation-filters="sRGB">
<feFlood flood-opacity="0" result="BackgroundImageFix"/>
<feColorMatrix in="SourceAlpha" type="matrix" values="0 0 0 0 0 0 0 0 0 0 0 0 0 0 0 0 0 0 127 0" result="hardAlpha"/>
<feOffset dy="4"/>
<feGaussianBlur stdDeviation="2"/>
<feComposite in2="hardAlpha" operator="out"/>
<feColorMatrix type="matrix" values="0 0 0 0 0.616667 0 0 0 0 0.442078 0 0 0 0 0.161875 0 0 0 0.87 0"/>
<feBlend mode="normal" in2="BackgroundImageFix" result="effect1_dropShadow_43_3"/>
<feBlend mode="normal" in="SourceGraphic" in2="effect1_dropShadow_43_3" result="shape"/>
</filter>
<clipPath id="clip0_43_3">
<rect width="861.704" height="581.8" fill="white" transform="matrix(0.51972 -0.854337 0.800812 0.598916 0 1048.19)"/>
</clipPath>
<clipPath id="clip1_43_3">
<rect width="862.392" height="581.297" fill="white" transform="matrix(-0.512567 0.858648 -0.806191 -0.591655 1314.51 1288.08)"/>
</clipPath>
<clipPath id="clip2_43_3">
<rect width="550" height="350" fill="white" transform="translate(550 116)"/>
</clipPath>
</defs>
</svg>
