<svg viewBox="0 0 776 590" fill="none" xmlns="http://www.w3.org/2000/svg">
<g filter="url(#filter0_d_37_2)">
<path d="M657.468 12.8716C659.688 24.9233 662.04 36.9515 664.663 48.9238C667.03 59.7297 673.576 68.8639 677.385 79.1189C681.078 89.0634 684.98 98.2006 689.547 107.862C704.618 139.745 723.631 169.357 744.755 198.141C756.742 214.475 763.984 229.357 768.198 248.594C771.307 262.785 771.799 285.826 771.799 300.27C771.799 321.59 756.118 323.307 756.118 344.851C722.615 344.851 759.292 378.108 756.118 391.837C704.034 421.862 776.278 431.356 771.799 443.881C766.678 458.2 758.57 469.207 743.597 476.91C732.746 482.492 715.508 487.097 702.749 487.097C697.439 487.097 676.08 481.703 676.052 481.906C676.566 482.068 677.086 482.237 677.611 482.414C676.525 482.094 676.047 481.937 676.052 481.906C657.171 475.975 645.743 480.413 636.608 480.413C613.71 480.413 598.759 484.164 576.527 489.743L576.103 489.849C543.626 497.998 527.072 514.116 500.159 533.193C491.512 539.322 482.712 543.467 474.475 550.392C465.587 557.865 458.188 568.315 447.093 572.992C425.744 581.991 408.955 582 386.088 582C375.068 582 353.536 580.802 343.256 575.695C327.588 567.911 305.616 557.918 292.033 547.258C281.585 539.059 268.196 533.652 255.577 530.456C238.508 526.132 228.571 529.272 211.164 534.771L210.596 534.951C192.572 536.961 175.933 545.464 159.57 550.973C143.108 556.515 115.767 557.545 98.5646 556.478C69.3268 554.664 56.0215 530.991 43.7718 507.584C31.9853 485.062 5.09854 469.258 4.05693 443.881C3.31076 425.703 10.0575 408.851 15.0578 391.837C16.2532 356.432 57.5483 322.443 82.5775 300.27C96.9544 287.533 112.473 270.689 118.103 252.263C123.04 236.103 123.708 212.94 115.062 197.835C103.043 176.837 73.1879 177.89 57.6138 160.149C44.207 144.877 32.9702 127.226 32.9702 107.021C32.9702 98.5162 32.7922 89.9918 32.9702 81.4886C33.1761 71.6514 38.7155 63.2826 44.0643 55.2017L44.1718 55.0392C52.9411 41.79 70.6152 36.8182 85.938 34.3995C96.3681 32.7531 106.053 30.2716 116.662 30.2716C131.248 30.2716 145.411 33.0235 160.029 33.0235C195.617 33.0235 231.157 34.3995 266.765 34.3995H363.259C391.97 34.3995 419.684 31.451 448.231 29.9658C471.191 28.7713 494.199 27.6414 517.041 25.3792C548.394 22.2742 579.763 23.0279 611.135 19.5695C626.279 17.9 642.032 14.2011 657.468 12.8716Z" fill="#F9A826"/>
</g>
<g clip-path="url(#clip0_37_2)">
<path d="M392.172 175.5C401.387 175.5 408.857 168.24 408.857 159.284C408.857 150.327 401.387 143.067 392.172 143.067C382.957 143.067 375.487 150.327 375.487 159.284C375.487 168.24 382.957 175.5 392.172 175.5Z" fill="#FD6584"/>
<path d="M429.514 151.605C429.044 150.105 428.132 148.772 426.892 147.77C425.652 146.767 424.137 146.139 422.534 145.962C422.497 145.959 422.459 145.959 422.422 145.962C422.377 145.949 422.331 145.939 422.285 145.932C416.698 145.228 410.487 146.94 406.306 150.669C404.754 152.032 403.513 153.695 402.663 155.553C401.888 154.524 400.867 153.694 399.688 153.135C398.508 152.576 397.207 152.305 395.896 152.346C394.204 152.454 392.589 153.067 391.269 154.101C389.95 155.135 388.99 156.539 388.522 158.122C388.47 158.315 388.485 158.519 388.562 158.704C388.64 158.889 388.777 159.045 388.953 159.148C389.456 159.566 390.053 159.861 390.696 160.01C392.077 160.296 393.471 160.557 394.864 160.794C397.589 161.256 400.328 161.63 403.082 161.918C404.9 162.106 406.723 162.256 408.549 162.367C412.324 162.598 416.117 162.652 419.897 162.537C421.772 162.476 423.572 162.416 425.284 161.614C426.532 161.018 427.598 160.115 428.377 158.996C429.111 157.92 429.593 156.7 429.789 155.423C429.986 154.146 429.892 152.843 429.514 151.605Z" fill="#E6E6E6"/>
<path d="M395.189 175.231C395.158 174.551 395.04 173.878 394.84 173.226C394.367 171.727 393.454 170.394 392.213 169.392C390.972 168.39 389.457 167.761 387.853 167.584C387.818 167.581 387.782 167.581 387.747 167.584C387.7 167.571 387.652 167.561 387.603 167.554C384.511 167.186 381.374 167.499 378.424 168.471C373.887 169.947 369.907 172.923 367.988 177.174C367.212 176.145 366.19 175.315 365.01 174.756C363.829 174.197 362.527 173.926 361.214 173.967C359.523 174.076 357.908 174.689 356.588 175.723C355.269 176.756 354.309 178.16 353.841 179.743C353.792 179.937 353.808 180.14 353.885 180.325C353.963 180.509 354.098 180.665 354.272 180.77C354.775 181.186 355.373 181.482 356.015 181.632C357.403 181.918 358.79 182.179 360.19 182.416C362.914 182.877 365.651 183.252 368.401 183.539C373.987 184.122 379.607 184.329 385.223 184.159C387.091 184.098 388.897 184.037 390.609 183.236C391.855 182.639 392.919 181.737 393.696 180.618C394.791 179.031 395.316 177.137 395.189 175.231Z" fill="#E6E6E6"/>
<path d="M612.493 372.006C612.733 383.063 611.163 394.087 607.842 404.665C607.726 405.049 607.587 405.433 607.447 405.818H538.988C539.966 401.134 541.52 396.581 543.615 392.257C549.312 380.504 558.614 370.446 567.799 360.457C580.449 346.692 592.797 333.041 594.751 315.141C599.765 322.57 603.767 330.601 606.657 339.03C603.119 340.304 599.872 342.239 597.099 344.726C596.332 345.427 595.518 346.444 595.913 347.416C596.285 348.229 597.308 348.5 598.215 348.681C600.401 349.088 602.587 349.495 604.773 349.879C606.494 350.218 608.238 350.535 609.982 350.851C611.515 357.808 612.356 364.892 612.493 372.006Z" fill="#F2F2F2"/>
<path d="M670 364.683C659.024 371.17 652.048 381.205 646.351 392.437C641.393 393.536 636.816 395.873 633.073 399.218C632.282 399.919 631.468 400.936 631.887 401.907C632.236 402.721 633.282 402.992 634.189 403.173C636.352 403.58 638.561 403.987 640.723 404.371C640.514 404.846 640.305 405.343 640.096 405.818H567.543C570.837 401.5 574.484 397.449 578.45 393.703C579.31 392.867 580.194 392.076 581.1 391.262C590.349 383.139 600.969 376.624 612.493 372.006C630.649 364.629 650.502 362.101 670 364.683Z" fill="#F2F2F2"/>
<path d="M579.635 405.818H515.036C514.683 400.79 514.714 395.743 515.129 390.72C517.71 359.688 535.081 330.126 561.288 312.225C557.94 323.82 559.66 335.346 563.148 346.918C562.66 347.077 562.172 347.212 561.73 347.393C558.192 348.667 554.945 350.602 552.173 353.088C551.405 353.789 550.591 354.806 550.987 355.778C551.335 356.592 552.382 356.863 553.289 357.044C555.475 357.451 557.661 357.857 559.823 358.242C561.567 358.581 563.311 358.897 565.055 359.236C565.869 359.372 566.683 359.53 567.497 359.688C567.613 359.959 567.683 360.208 567.799 360.457C571.892 371.418 576.357 382.47 578.449 393.703C578.967 396.522 579.325 399.367 579.519 402.224C579.589 403.422 579.635 404.62 579.635 405.818Z" fill="#F2F2F2"/>
<path d="M227.563 372.006C227.803 383.063 226.233 394.087 222.912 404.665C222.796 405.049 222.657 405.433 222.517 405.818H154.058C155.036 401.134 156.59 396.581 158.685 392.257C164.382 380.504 173.684 370.446 182.869 360.457C195.519 346.692 207.867 333.041 209.821 315.141C214.835 322.57 218.837 330.601 221.727 339.03C218.189 340.304 214.942 342.239 212.169 344.726C211.402 345.427 210.588 346.444 210.983 347.416C211.355 348.229 212.378 348.5 213.285 348.681C215.471 349.088 217.657 349.495 219.843 349.879C221.564 350.218 223.308 350.535 225.052 350.851C226.585 357.808 227.426 364.892 227.563 372.006Z" fill="#F2F2F2"/>
<path d="M285.07 364.683C274.094 371.17 267.118 381.205 261.421 392.437C256.463 393.536 251.886 395.873 248.143 399.218C247.352 399.919 246.538 400.936 246.957 401.907C247.306 402.721 248.352 402.992 249.259 403.173C251.422 403.58 253.631 403.987 255.793 404.371C255.584 404.846 255.375 405.343 255.166 405.818H182.614C185.907 401.5 189.554 397.449 193.52 393.703C194.38 392.867 195.264 392.076 196.171 391.262C205.419 383.139 216.039 376.624 227.563 372.006C245.719 364.629 265.572 362.101 285.07 364.683Z" fill="#F2F2F2"/>
<path d="M194.706 405.818H130.106C129.753 400.79 129.785 395.743 130.199 390.72C132.78 359.688 150.151 330.126 176.358 312.225C173.01 323.82 174.73 335.346 178.218 346.918C177.73 347.077 177.242 347.212 176.8 347.393C173.262 348.667 170.015 350.602 167.243 353.088C166.475 353.789 165.661 354.806 166.057 355.778C166.405 356.592 167.452 356.863 168.359 357.044C170.545 357.451 172.731 357.857 174.893 358.242C176.637 358.581 178.381 358.897 180.125 359.236C180.939 359.372 181.753 359.53 182.567 359.688C182.683 359.959 182.753 360.208 182.869 360.457C186.962 371.418 191.427 382.47 193.52 393.703C194.038 396.522 194.395 399.367 194.589 402.224C194.659 403.422 194.706 404.62 194.706 405.818Z" fill="#F2F2F2"/>
<path d="M435.199 379.457L492.92 384.437L493.538 384.492V145.11C493.332 144.971 493.126 144.831 492.92 144.691C480.89 136.513 467.877 129.795 454.17 124.685L451.221 164.224L450.952 167.844L448.034 207.054L447.134 219.116L435.305 378.06L435.199 379.457Z" fill="#E6E6E6"/>
<path d="M292.456 140.652C292.044 140.907 291.631 141.163 291.219 141.43V384.492L292.456 384.383L349.552 379.457L349.446 378.06L337.617 219.116L336.717 207.054L333.798 167.844L333.53 164.224L330.437 122.76C317.097 127.254 304.349 133.259 292.456 140.652Z" fill="#E6E6E6"/>
<path d="M291.219 141.43C290.388 141.952 289.557 142.487 288.738 143.027V387.808C288.738 393.924 292.469 399.05 297.455 400.356C298.27 400.571 299.111 400.679 299.955 400.678H485.421C486.263 400.679 487.102 400.571 487.914 400.356C489.768 399.856 491.448 398.878 492.776 397.526C495.309 394.895 496.693 391.411 496.638 387.808V147.285C495.613 146.55 494.582 145.821 493.538 145.11C493.332 144.971 493.126 144.831 492.92 144.691V387.808C492.921 388.596 492.825 389.381 492.632 390.146C491.751 393.76 488.845 396.408 485.421 396.408H299.955C295.818 396.408 292.456 392.552 292.456 387.808V140.652C292.044 140.907 291.631 141.163 291.219 141.43Z" fill="#E6E6E6"/>
<path d="M494.778 164.226H290.595V167.845H494.778V164.226Z" fill="#E6E6E6"/>
<path d="M432.243 118.059C431.006 117.761 429.769 117.482 428.519 117.221V215.496H432.243V118.059Z" fill="#E6E6E6"/>
<path d="M356.857 116C355.613 116.225 354.37 116.456 353.133 116.705V215.496H356.857V116Z" fill="#E6E6E6"/>
<path d="M250.564 394.343C250.563 396.42 250.972 398.478 251.77 400.405C252.076 401.152 252.442 401.875 252.863 402.567C253.408 403.469 254.04 404.32 254.75 405.106C256.32 406.844 258.254 408.237 260.422 409.191C262.59 410.146 264.943 410.639 267.323 410.639H511.847C516.292 410.639 520.555 408.922 523.698 405.868C526.841 402.813 528.607 398.67 528.607 394.349C528.607 390.029 526.841 385.886 523.698 382.831C520.555 379.776 516.292 378.06 511.847 378.06H267.323C262.881 378.064 258.621 379.781 255.479 382.834C252.338 385.886 250.57 390.025 250.564 394.343Z" fill="#E6E6E6"/>
<path d="M290.596 219.118L493.537 219.118V207.053L290.596 207.053V219.118Z" fill="#E6E6E6"/>
<path d="M400.755 210.07H383.378C383.378 208.31 384.097 206.622 385.377 205.378C386.658 204.133 388.394 203.434 390.205 203.434H393.928C394.825 203.434 395.713 203.606 396.541 203.939C397.369 204.273 398.122 204.762 398.756 205.378C399.389 205.994 399.892 206.725 400.235 207.53C400.578 208.335 400.755 209.198 400.755 210.07H400.755Z" fill="#E6E6E6"/>
<path d="M120 403.648C125.429 409.9 131.3 415.775 137.572 421.231H641.593C647.864 415.775 653.736 409.9 659.164 403.648H120Z" fill="#3F3D56"/>
<path d="M367.886 344.85V407.14H412.784V344.85C412.785 344.402 412.638 343.966 412.365 343.605C412.091 343.244 411.706 342.978 411.266 342.846C411.058 342.779 410.841 342.746 410.622 342.749H370.055C369.77 342.748 369.488 342.802 369.226 342.907C368.963 343.013 368.724 343.167 368.522 343.363C368.321 343.558 368.161 343.79 368.052 344.045C367.943 344.3 367.886 344.574 367.886 344.85ZM385.408 366.253C385.42 365.025 385.93 363.852 386.828 362.987C387.725 362.123 388.938 361.639 390.201 361.639C391.464 361.639 392.677 362.123 393.574 362.987C394.472 363.852 394.982 365.025 394.994 366.253V373.481C394.987 374.712 394.479 375.891 393.581 376.759C392.683 377.628 391.468 378.115 390.201 378.115C388.934 378.115 387.719 377.628 386.82 376.759C385.922 375.891 385.414 374.712 385.408 373.481V366.253Z" fill="#2F2E41"/>
<path d="M367.749 405.148V411.155C367.75 411.466 367.877 411.764 368.103 411.985C368.329 412.205 368.635 412.33 368.955 412.333H411.716C412.036 412.332 412.343 412.207 412.569 411.986C412.795 411.765 412.922 411.466 412.922 411.155V405.148H367.749Z" fill="#3F3D56"/>
<path d="M297.255 251.002V364.735C297.256 366.184 297.849 367.574 298.904 368.599C299.958 369.624 301.388 370.2 302.879 370.201H476.285C477.776 370.2 479.206 369.624 480.26 368.599C481.315 367.574 481.908 366.184 481.909 364.735V251.002C481.905 249.554 481.312 248.166 480.258 247.143C479.203 246.12 477.775 245.544 476.285 245.542H302.879C301.389 245.544 299.961 246.12 298.907 247.143C297.853 248.166 297.259 249.554 297.255 251.002Z" fill="#3F3D56"/>
<path d="M301.323 252.417V363.332C301.325 364.106 301.642 364.849 302.205 365.396C302.768 365.944 303.532 366.252 304.329 366.253H474.842C475.638 366.252 476.402 365.944 476.965 365.396C477.529 364.849 477.846 364.106 477.847 363.332V252.417C477.847 251.642 477.531 250.898 476.967 250.35C476.404 249.801 475.639 249.492 474.842 249.49H304.329C303.531 249.492 302.767 249.801 302.203 250.35C301.64 250.898 301.323 251.642 301.323 252.417Z" fill="#F9A826"/>
<path d="M336.092 413.748C336.266 413.96 336.486 414.13 336.737 414.247C336.988 414.364 337.263 414.424 337.542 414.422H438.986C439.263 414.422 439.537 414.362 439.788 414.245C440.038 414.129 440.258 413.96 440.433 413.751C440.608 413.542 440.733 413.297 440.798 413.035C440.863 412.773 440.867 412.5 440.811 412.236L439.236 404.966C439.171 404.669 439.03 404.394 438.827 404.163C438.624 403.933 438.365 403.756 438.073 403.648C437.862 403.567 437.638 403.526 437.411 403.526H339.11C338.884 403.526 338.659 403.567 338.448 403.648C338.156 403.756 337.897 403.933 337.694 404.163C337.491 404.393 337.351 404.669 337.286 404.966L335.711 412.236C335.655 412.5 335.66 412.772 335.726 413.034C335.792 413.295 335.917 413.539 336.092 413.748Z" fill="#2F2E41"/>
<path d="M433.871 406.658H436.385C436.554 406.658 436.69 406.525 436.69 406.361V405.132C436.69 404.969 436.554 404.836 436.385 404.836H433.871C433.703 404.836 433.566 404.969 433.566 405.132V406.361C433.566 406.525 433.703 406.658 433.871 406.658Z" fill="#3F3D56"/>
<path d="M427.622 406.658H430.137C430.305 406.658 430.442 406.525 430.442 406.361V405.132C430.442 404.969 430.305 404.836 430.137 404.836H427.622C427.454 404.836 427.317 404.969 427.317 405.132V406.361C427.317 406.525 427.454 406.658 427.622 406.658Z" fill="#3F3D56"/>
<path d="M421.373 406.658H423.888C424.056 406.658 424.193 406.525 424.193 406.361V405.132C424.193 404.969 424.056 404.836 423.888 404.836H421.373C421.205 404.836 421.068 404.969 421.068 405.132V406.361C421.068 406.525 421.205 406.658 421.373 406.658Z" fill="#3F3D56"/>
<path d="M415.124 406.658H417.639C417.807 406.658 417.944 406.525 417.944 406.361V405.132C417.944 404.969 417.807 404.836 417.639 404.836H415.124C414.956 404.836 414.819 404.969 414.819 405.132V406.361C414.819 406.525 414.956 406.658 415.124 406.658Z" fill="#3F3D56"/>
<path d="M408.876 406.658H411.39C411.558 406.658 411.695 406.525 411.695 406.361V405.132C411.695 404.969 411.558 404.836 411.39 404.836H408.876C408.707 404.836 408.571 404.969 408.571 405.132V406.361C408.571 406.525 408.707 406.658 408.876 406.658Z" fill="#3F3D56"/>
<path d="M402.627 406.658H405.141C405.31 406.658 405.446 406.525 405.446 406.361V405.132C405.446 404.969 405.31 404.836 405.141 404.836H402.627C402.458 404.836 402.322 404.969 402.322 405.132V406.361C402.322 406.525 402.458 406.658 402.627 406.658Z" fill="#3F3D56"/>
<path d="M396.378 406.658H398.892C399.061 406.658 399.197 406.525 399.197 406.361V405.132C399.197 404.969 399.061 404.836 398.892 404.836H396.378C396.209 404.836 396.073 404.969 396.073 405.132V406.361C396.073 406.525 396.209 406.658 396.378 406.658Z" fill="#3F3D56"/>
<path d="M390.129 406.658H392.643C392.812 406.658 392.948 406.525 392.948 406.361V405.132C392.948 404.969 392.812 404.836 392.643 404.836H390.129C389.961 404.836 389.824 404.969 389.824 405.132V406.361C389.824 406.525 389.961 406.658 390.129 406.658Z" fill="#3F3D56"/>
<path d="M383.88 406.658H386.395C386.563 406.658 386.7 406.525 386.7 406.361V405.132C386.7 404.969 386.563 404.836 386.395 404.836H383.88C383.712 404.836 383.575 404.969 383.575 405.132V406.361C383.575 406.525 383.712 406.658 383.88 406.658Z" fill="#3F3D56"/>
<path d="M377.631 406.658H380.146C380.314 406.658 380.451 406.525 380.451 406.361V405.132C380.451 404.969 380.314 404.836 380.146 404.836H377.631C377.463 404.836 377.326 404.969 377.326 405.132V406.361C377.326 406.525 377.463 406.658 377.631 406.658Z" fill="#3F3D56"/>
<path d="M371.383 406.658H373.897C374.065 406.658 374.202 406.525 374.202 406.361V405.132C374.202 404.969 374.065 404.836 373.897 404.836H371.383C371.214 404.836 371.077 404.969 371.077 405.132V406.361C371.077 406.525 371.214 406.658 371.383 406.658Z" fill="#3F3D56"/>
<path d="M365.133 406.658H367.648C367.816 406.658 367.953 406.525 367.953 406.361V405.132C367.953 404.969 367.816 404.836 367.648 404.836H365.133C364.965 404.836 364.828 404.969 364.828 405.132V406.361C364.828 406.525 364.965 406.658 365.133 406.658Z" fill="#3F3D56"/>
<path d="M358.885 406.658H361.399C361.568 406.658 361.704 406.525 361.704 406.361V405.132C361.704 404.969 361.568 404.836 361.399 404.836H358.885C358.716 404.836 358.58 404.969 358.58 405.132V406.361C358.58 406.525 358.716 406.658 358.885 406.658Z" fill="#3F3D56"/>
<path d="M352.636 406.658H355.15C355.319 406.658 355.455 406.525 355.455 406.361V405.132C355.455 404.969 355.319 404.836 355.15 404.836H352.636C352.467 404.836 352.331 404.969 352.331 405.132V406.361C352.331 406.525 352.467 406.658 352.636 406.658Z" fill="#3F3D56"/>
<path d="M346.387 406.658H348.901C349.07 406.658 349.206 406.525 349.206 406.361V405.132C349.206 404.969 349.07 404.836 348.901 404.836H346.387C346.218 404.836 346.082 404.969 346.082 405.132V406.361C346.082 406.525 346.218 406.658 346.387 406.658Z" fill="#3F3D56"/>
<path d="M340.138 406.658H342.652C342.821 406.658 342.958 406.525 342.958 406.361V405.132C342.958 404.969 342.821 404.836 342.652 404.836H340.138C339.97 404.836 339.833 404.969 339.833 405.132V406.361C339.833 406.525 339.97 406.658 340.138 406.658Z" fill="#3F3D56"/>
<path d="M433.945 409.695H436.459C436.628 409.695 436.764 409.562 436.764 409.398V408.169C436.764 408.005 436.628 407.873 436.459 407.873H433.945C433.777 407.873 433.64 408.005 433.64 408.169V409.398C433.64 409.562 433.777 409.695 433.945 409.695Z" fill="#3F3D56"/>
<path d="M427.696 409.695H430.211C430.379 409.695 430.516 409.562 430.516 409.398V408.169C430.516 408.005 430.379 407.873 430.211 407.873H427.696C427.528 407.873 427.391 408.005 427.391 408.169V409.398C427.391 409.562 427.528 409.695 427.696 409.695Z" fill="#3F3D56"/>
<path d="M421.447 409.695H423.962C424.13 409.695 424.267 409.562 424.267 409.398V408.169C424.267 408.005 424.13 407.873 423.962 407.873H421.447C421.279 407.873 421.142 408.005 421.142 408.169V409.398C421.142 409.562 421.279 409.695 421.447 409.695Z" fill="#3F3D56"/>
<path d="M415.198 409.695H417.713C417.881 409.695 418.018 409.562 418.018 409.398V408.169C418.018 408.005 417.881 407.873 417.713 407.873H415.198C415.03 407.873 414.893 408.005 414.893 408.169V409.398C414.893 409.562 415.03 409.695 415.198 409.695Z" fill="#3F3D56"/>
<path d="M408.949 409.695H411.464C411.632 409.695 411.769 409.562 411.769 409.398V408.169C411.769 408.005 411.632 407.873 411.464 407.873H408.949C408.781 407.873 408.644 408.005 408.644 408.169V409.398C408.644 409.562 408.781 409.695 408.949 409.695Z" fill="#3F3D56"/>
<path d="M402.701 409.695H405.215C405.383 409.695 405.52 409.562 405.52 409.398V408.169C405.52 408.005 405.383 407.873 405.215 407.873H402.701C402.532 407.873 402.396 408.005 402.396 408.169V409.398C402.396 409.562 402.532 409.695 402.701 409.695Z" fill="#3F3D56"/>
<path d="M396.452 409.695H398.966C399.135 409.695 399.271 409.562 399.271 409.398V408.169C399.271 408.005 399.135 407.873 398.966 407.873H396.452C396.283 407.873 396.147 408.005 396.147 408.169V409.398C396.147 409.562 396.283 409.695 396.452 409.695Z" fill="#3F3D56"/>
<path d="M390.203 409.695H392.717C392.886 409.695 393.022 409.562 393.022 409.398V408.169C393.022 408.005 392.886 407.873 392.717 407.873H390.203C390.035 407.873 389.898 408.005 389.898 408.169V409.398C389.898 409.562 390.035 409.695 390.203 409.695Z" fill="#3F3D56"/>
<path d="M383.954 409.695H386.468C386.637 409.695 386.773 409.562 386.773 409.398V408.169C386.773 408.005 386.637 407.873 386.468 407.873H383.954C383.786 407.873 383.649 408.005 383.649 408.169V409.398C383.649 409.562 383.786 409.695 383.954 409.695Z" fill="#3F3D56"/>
<path d="M377.705 409.695H380.22C380.388 409.695 380.525 409.562 380.525 409.398V408.169C380.525 408.005 380.388 407.873 380.22 407.873H377.705C377.537 407.873 377.4 408.005 377.4 408.169V409.398C377.4 409.562 377.537 409.695 377.705 409.695Z" fill="#3F3D56"/>
<path d="M371.456 409.695H373.971C374.139 409.695 374.276 409.562 374.276 409.398V408.169C374.276 408.005 374.139 407.873 373.971 407.873H371.456C371.288 407.873 371.151 408.005 371.151 408.169V409.398C371.151 409.562 371.288 409.695 371.456 409.695Z" fill="#3F3D56"/>
<path d="M365.207 409.695H367.722C367.89 409.695 368.027 409.562 368.027 409.398V408.169C368.027 408.005 367.89 407.873 367.722 407.873H365.207C365.039 407.873 364.902 408.005 364.902 408.169V409.398C364.902 409.562 365.039 409.695 365.207 409.695Z" fill="#3F3D56"/>
<path d="M358.959 409.695H361.473C361.641 409.695 361.778 409.562 361.778 409.398V408.169C361.778 408.005 361.641 407.873 361.473 407.873H358.959C358.79 407.873 358.654 408.005 358.654 408.169V409.398C358.654 409.562 358.79 409.695 358.959 409.695Z" fill="#3F3D56"/>
<path d="M352.71 409.695H355.224C355.392 409.695 355.529 409.562 355.529 409.398V408.169C355.529 408.005 355.392 407.873 355.224 407.873H352.71C352.541 407.873 352.405 408.005 352.405 408.169V409.398C352.405 409.562 352.541 409.695 352.71 409.695Z" fill="#3F3D56"/>
<path d="M346.461 409.695H348.975C349.144 409.695 349.28 409.562 349.28 409.398V408.169C349.28 408.005 349.144 407.873 348.975 407.873H346.461C346.292 407.873 346.156 408.005 346.156 408.169V409.398C346.156 409.562 346.292 409.695 346.461 409.695Z" fill="#3F3D56"/>
<path d="M340.212 409.695H342.726C342.895 409.695 343.031 409.562 343.031 409.398V408.169C343.031 408.005 342.895 407.873 342.726 407.873H340.212C340.044 407.873 339.907 408.005 339.907 408.169V409.398C339.907 409.562 340.044 409.695 340.212 409.695Z" fill="#3F3D56"/>
<path d="M382.079 413.339H406.465C406.633 413.339 406.77 413.206 406.77 413.042V411.813C406.77 411.649 406.633 411.517 406.465 411.517H382.079C381.911 411.517 381.774 411.649 381.774 411.813V413.042C381.774 413.206 381.911 413.339 382.079 413.339Z" fill="#3F3D56"/>
<path d="M312.897 264.769H472.445C472.611 264.765 472.769 264.699 472.885 264.584C473.001 264.468 473.066 264.313 473.066 264.152C473.066 263.991 473.001 263.836 472.885 263.721C472.769 263.606 472.611 263.539 472.445 263.536H312.897C312.731 263.539 312.574 263.606 312.458 263.721C312.342 263.836 312.277 263.991 312.277 264.152C312.277 264.313 312.342 264.468 312.458 264.584C312.574 264.699 312.731 264.765 312.897 264.769Z" fill="#3F3D56"/>
<path d="M461.585 260.387C463.638 260.387 465.303 258.733 465.303 256.692C465.303 254.652 463.638 252.998 461.585 252.998C459.531 252.998 457.866 254.652 457.866 256.692C457.866 258.733 459.531 260.387 461.585 260.387Z" fill="#3F3D56"/>
<path d="M448.74 260.387C450.793 260.387 452.458 258.733 452.458 256.692C452.458 254.652 450.793 252.998 448.74 252.998C446.686 252.998 445.021 254.652 445.021 256.692C445.021 258.733 446.686 260.387 448.74 260.387Z" fill="#3F3D56"/>
<path d="M435.894 260.387C437.948 260.387 439.613 258.733 439.613 256.692C439.613 254.652 437.948 252.998 435.894 252.998C433.841 252.998 432.176 254.652 432.176 256.692C432.176 258.733 433.841 260.387 435.894 260.387Z" fill="#3F3D56"/>
<path d="M319.951 254.586C319.951 254.673 319.968 254.759 320.002 254.84C320.036 254.921 320.086 254.995 320.149 255.057C320.213 255.119 320.288 255.168 320.371 255.202C320.454 255.236 320.542 255.253 320.632 255.254H329.756C329.936 255.25 330.108 255.177 330.234 255.052C330.36 254.926 330.43 254.758 330.43 254.583C330.43 254.407 330.36 254.239 330.234 254.113C330.108 253.988 329.936 253.915 329.756 253.911H320.632C320.45 253.914 320.276 253.986 320.149 254.112C320.021 254.238 319.95 254.409 319.951 254.586Z" fill="#3F3D56"/>
<path d="M319.951 257.106C319.951 257.193 319.968 257.28 320.002 257.361C320.036 257.442 320.086 257.515 320.149 257.577C320.213 257.639 320.288 257.689 320.371 257.722C320.454 257.756 320.542 257.774 320.632 257.774H329.756C329.936 257.77 330.108 257.698 330.234 257.572C330.36 257.447 330.431 257.278 330.431 257.103C330.431 256.928 330.36 256.759 330.234 256.634C330.108 256.508 329.936 256.436 329.756 256.432H320.632C320.45 256.434 320.276 256.506 320.149 256.632C320.021 256.759 319.95 256.929 319.951 257.106Z" fill="#3F3D56"/>
<path d="M319.951 259.62C319.95 259.798 320.021 259.968 320.149 260.094C320.276 260.22 320.45 260.292 320.632 260.295H329.756C329.936 260.291 330.108 260.218 330.234 260.093C330.36 259.967 330.43 259.799 330.43 259.624C330.43 259.448 330.36 259.28 330.234 259.154C330.108 259.029 329.936 258.956 329.756 258.952H320.632C320.542 258.953 320.454 258.97 320.371 259.004C320.288 259.038 320.213 259.087 320.149 259.149C320.086 259.211 320.036 259.285 320.002 259.366C319.968 259.447 319.951 259.533 319.951 259.62Z" fill="#3F3D56"/>
<path d="M322.771 279.1H319.493C318.499 279.1 317.693 279.883 317.693 280.849C317.693 281.815 318.499 282.599 319.493 282.599H322.771C323.765 282.599 324.57 281.815 324.57 280.849C324.57 279.883 323.765 279.1 322.771 279.1Z" fill="#E6E6E6"/>
<path d="M360.264 279.1H356.986C355.992 279.1 355.186 279.883 355.186 280.849C355.186 281.815 355.992 282.599 356.986 282.599H360.264C361.258 282.599 362.064 281.815 362.064 280.849C362.064 279.883 361.258 279.1 360.264 279.1Z" fill="#E6E6E6"/>
<path d="M370.887 279.1H367.609C366.615 279.1 365.809 279.883 365.809 280.849C365.809 281.815 366.615 282.599 367.609 282.599H370.887C371.881 282.599 372.687 281.815 372.687 280.849C372.687 279.883 371.881 279.1 370.887 279.1Z" fill="#E6E6E6"/>
<path d="M350.066 278.809H329.691C328.697 278.809 327.891 279.592 327.891 280.558C327.891 281.524 328.697 282.307 329.691 282.307H350.066C351.06 282.307 351.865 281.524 351.865 280.558C351.865 279.592 351.06 278.809 350.066 278.809Z" fill="#E6E6E6"/>
<path d="M400.056 278.809H379.681C378.688 278.809 377.882 279.592 377.882 280.558C377.882 281.524 378.688 282.307 379.681 282.307H400.056C401.05 282.307 401.856 281.524 401.856 280.558C401.856 279.592 401.05 278.809 400.056 278.809Z" fill="#E6E6E6"/>
<path d="M332.769 286.996H329.491C328.497 286.996 327.691 287.779 327.691 288.745C327.691 289.711 328.497 290.494 329.491 290.494H332.769C333.763 290.494 334.568 289.711 334.568 288.745C334.568 287.779 333.763 286.996 332.769 286.996Z" fill="#E6E6E6"/>
<path d="M370.262 286.996H366.984C365.99 286.996 365.184 287.779 365.184 288.745C365.184 289.711 365.99 290.494 366.984 290.494H370.262C371.256 290.494 372.062 289.711 372.062 288.745C372.062 287.779 371.256 286.996 370.262 286.996Z" fill="#E6E6E6"/>
<path d="M380.885 286.996H377.607C376.613 286.996 375.807 287.779 375.807 288.745C375.807 289.711 376.613 290.494 377.607 290.494H380.885C381.879 290.494 382.685 289.711 382.685 288.745C382.685 287.779 381.879 286.996 380.885 286.996Z" fill="#E6E6E6"/>
<path d="M360.064 286.704H339.689C338.695 286.704 337.889 287.487 337.889 288.453C337.889 289.419 338.695 290.203 339.689 290.203H360.064C361.058 290.203 361.863 289.419 361.863 288.453C361.863 287.487 361.058 286.704 360.064 286.704Z" fill="#E6E6E6"/>
<path d="M410.055 286.704H389.68C388.686 286.704 387.88 287.487 387.88 288.453C387.88 289.419 388.686 290.203 389.68 290.203H410.055C411.049 290.203 411.854 289.419 411.854 288.453C411.854 287.487 411.049 286.704 410.055 286.704Z" fill="#E6E6E6"/>
<path d="M342.767 294.891H339.489C338.495 294.891 337.689 295.675 337.689 296.641C337.689 297.607 338.495 298.39 339.489 298.39H342.767C343.761 298.39 344.567 297.607 344.567 296.641C344.567 295.675 343.761 294.891 342.767 294.891Z" fill="#E6E6E6"/>
<path d="M380.26 294.891H376.982C375.988 294.891 375.182 295.675 375.182 296.641C375.182 297.607 375.988 298.39 376.982 298.39H380.26C381.254 298.39 382.06 297.607 382.06 296.641C382.06 295.675 381.254 294.891 380.26 294.891Z" fill="#E6E6E6"/>
<path d="M390.883 294.891H387.605C386.611 294.891 385.805 295.675 385.805 296.641C385.805 297.607 386.611 298.39 387.605 298.39H390.883C391.877 298.39 392.683 297.607 392.683 296.641C392.683 295.675 391.877 294.891 390.883 294.891Z" fill="#E6E6E6"/>
<path d="M370.062 294.6H349.687C348.693 294.6 347.887 295.383 347.887 296.349C347.887 297.315 348.693 298.098 349.687 298.098H370.062C371.056 298.098 371.862 297.315 371.862 296.349C371.862 295.383 371.056 294.6 370.062 294.6Z" fill="#E6E6E6"/>
<path d="M420.053 294.6H399.678C398.684 294.6 397.878 295.383 397.878 296.349C397.878 297.315 398.684 298.098 399.678 298.098H420.053C421.047 298.098 421.852 297.315 421.852 296.349C421.852 295.383 421.047 294.6 420.053 294.6Z" fill="#E6E6E6"/>
<path d="M352.765 302.787H349.487C348.493 302.787 347.687 303.57 347.687 304.536C347.687 305.502 348.493 306.285 349.487 306.285H352.765C353.759 306.285 354.565 305.502 354.565 304.536C354.565 303.57 353.759 302.787 352.765 302.787Z" fill="#E6E6E6"/>
<path d="M390.258 302.787H386.98C385.986 302.787 385.18 303.57 385.18 304.536C385.18 305.502 385.986 306.285 386.98 306.285H390.258C391.252 306.285 392.058 305.502 392.058 304.536C392.058 303.57 391.252 302.787 390.258 302.787Z" fill="#E6E6E6"/>
<path d="M400.881 302.787H397.603C396.609 302.787 395.803 303.57 395.803 304.536C395.803 305.502 396.609 306.285 397.603 306.285H400.881C401.875 306.285 402.681 305.502 402.681 304.536C402.681 303.57 401.875 302.787 400.881 302.787Z" fill="#E6E6E6"/>
<path d="M380.06 302.495H359.685C358.691 302.495 357.885 303.278 357.885 304.245C357.885 305.211 358.691 305.994 359.685 305.994H380.06C381.054 305.994 381.86 305.211 381.86 304.245C381.86 303.278 381.054 302.495 380.06 302.495Z" fill="#E6E6E6"/>
<path d="M360.264 334.183H356.986C355.992 334.183 355.186 334.966 355.186 335.932C355.186 336.898 355.992 337.681 356.986 337.681H360.264C361.258 337.681 362.064 336.898 362.064 335.932C362.064 334.966 361.258 334.183 360.264 334.183Z" fill="#E6E6E6"/>
<path d="M370.887 334.183H367.609C366.615 334.183 365.809 334.966 365.809 335.932C365.809 336.898 366.615 337.681 367.609 337.681H370.887C371.881 337.681 372.687 336.898 372.687 335.932C372.687 334.966 371.881 334.183 370.887 334.183Z" fill="#E6E6E6"/>
<path d="M400.056 334.475H379.681C378.688 334.475 377.882 335.258 377.882 336.224C377.882 337.19 378.688 337.973 379.681 337.973H400.056C401.05 337.973 401.856 337.19 401.856 336.224C401.856 335.258 401.05 334.475 400.056 334.475Z" fill="#E6E6E6"/>
<path d="M322.771 334.183H319.493C318.499 334.183 317.693 334.966 317.693 335.932C317.693 336.898 318.499 337.681 319.493 337.681H322.771C323.765 337.681 324.57 336.898 324.57 335.932C324.57 334.966 323.765 334.183 322.771 334.183Z" fill="#E6E6E6"/>
<path d="M350.066 334.475H329.691C328.697 334.475 327.891 335.258 327.891 336.224C327.891 337.19 328.697 337.973 329.691 337.973H350.066C351.06 337.973 351.865 337.19 351.865 336.224C351.865 335.258 351.06 334.475 350.066 334.475Z" fill="#E6E6E6"/>
<path d="M332.769 326.288H329.491C328.497 326.288 327.691 327.071 327.691 328.037C327.691 329.003 328.497 329.786 329.491 329.786H332.769C333.763 329.786 334.568 329.003 334.568 328.037C334.568 327.071 333.763 326.288 332.769 326.288Z" fill="#E6E6E6"/>
<path d="M370.262 326.288H366.984C365.99 326.288 365.184 327.071 365.184 328.037C365.184 329.003 365.99 329.786 366.984 329.786H370.262C371.256 329.786 372.062 329.003 372.062 328.037C372.062 327.071 371.256 326.288 370.262 326.288Z" fill="#E6E6E6"/>
<path d="M380.885 326.288H377.607C376.613 326.288 375.807 327.071 375.807 328.037C375.807 329.003 376.613 329.786 377.607 329.786H380.885C381.879 329.786 382.685 329.003 382.685 328.037C382.685 327.071 381.879 326.288 380.885 326.288Z" fill="#E6E6E6"/>
<path d="M360.064 326.579H339.689C338.695 326.579 337.889 327.362 337.889 328.328C337.889 329.294 338.695 330.078 339.689 330.078H360.064C361.058 330.078 361.863 329.294 361.863 328.328C361.863 327.362 361.058 326.579 360.064 326.579Z" fill="#E6E6E6"/>
<path d="M342.767 318.392H339.489C338.495 318.392 337.689 319.175 337.689 320.141C337.689 321.107 338.495 321.89 339.489 321.89H342.767C343.761 321.89 344.567 321.107 344.567 320.141C344.567 319.175 343.761 318.392 342.767 318.392Z" fill="#E6E6E6"/>
<path d="M380.26 318.392H376.982C375.988 318.392 375.182 319.175 375.182 320.141C375.182 321.107 375.988 321.89 376.982 321.89H380.26C381.254 321.89 382.06 321.107 382.06 320.141C382.06 319.175 381.254 318.392 380.26 318.392Z" fill="#E6E6E6"/>
<path d="M390.883 318.392H387.605C386.611 318.392 385.805 319.175 385.805 320.141C385.805 321.107 386.611 321.89 387.605 321.89H390.883C391.877 321.89 392.683 321.107 392.683 320.141C392.683 319.175 391.877 318.392 390.883 318.392Z" fill="#E6E6E6"/>
<path d="M370.062 318.684H349.687C348.693 318.684 347.887 319.467 347.887 320.433C347.887 321.399 348.693 322.182 349.687 322.182H370.062C371.056 322.182 371.862 321.399 371.862 320.433C371.862 319.467 371.056 318.684 370.062 318.684Z" fill="#E6E6E6"/>
<path d="M352.765 310.496H349.487C348.493 310.496 347.687 311.28 347.687 312.246C347.687 313.212 348.493 313.995 349.487 313.995H352.765C353.759 313.995 354.565 313.212 354.565 312.246C354.565 311.28 353.759 310.496 352.765 310.496Z" fill="#E6E6E6"/>
<path d="M390.258 310.496H386.98C385.986 310.496 385.18 311.28 385.18 312.246C385.18 313.212 385.986 313.995 386.98 313.995H390.258C391.252 313.995 392.058 313.212 392.058 312.246C392.058 311.28 391.252 310.496 390.258 310.496Z" fill="#E6E6E6"/>
<path d="M400.881 310.496H397.603C396.609 310.496 395.803 311.28 395.803 312.246C395.803 313.212 396.609 313.995 397.603 313.995H400.881C401.875 313.995 402.681 313.212 402.681 312.246C402.681 311.28 401.875 310.496 400.881 310.496Z" fill="#E6E6E6"/>
<path d="M380.06 310.788H359.685C358.691 310.788 357.885 311.571 357.885 312.537C357.885 313.503 358.691 314.286 359.685 314.286H380.06C381.054 314.286 381.86 313.503 381.86 312.537C381.86 311.571 381.054 310.788 380.06 310.788Z" fill="#E6E6E6"/>
<path d="M338.655 447.585C338.518 447.652 338.38 447.719 338.243 447.779C337.374 448.199 336.499 448.611 335.618 449.018C332.981 450.239 330.311 451.399 327.607 452.499C320.493 455.391 313.194 457.831 305.755 459.805C304.505 452.231 303.293 434.369 302.131 421.232C301.912 418.76 301.693 416.458 301.474 414.424C301.267 411.753 300.872 409.098 300.293 406.48C300.237 406.274 300.155 406.077 300.05 405.89C300.168 406.941 300.293 410.075 300.412 414.424C300.475 416.458 300.531 418.76 300.593 421.232C300.887 433.877 301.193 451.083 301.499 460.88C300.631 461.087 299.756 461.293 298.881 461.487C298.331 461.615 297.775 461.736 297.219 461.852C296.544 461.998 295.869 462.143 295.194 462.277C294.488 462.423 293.782 462.562 293.076 462.696C281.537 464.899 269.804 466.006 258.045 466C257.264 466 256.489 465.994 255.708 465.988C255.47 465.988 255.233 465.982 254.989 465.976C254.302 465.964 253.589 465.951 252.865 465.933C238.968 465.56 225.162 463.626 211.722 460.169L212.266 421.232L212.359 414.424L212.397 411.842C212.087 412.673 211.902 413.542 211.847 414.424C211.628 416.082 211.403 418.432 211.178 421.232C210.322 432.019 209.441 449.419 208.529 459.319C197.725 456.331 189.826 453.604 179.953 448.806C179.572 448.624 179.184 448.435 178.803 448.247C178.872 447.779 178.947 447.312 179.015 446.832C180.134 439.276 178.815 429.443 180.053 421.232C180.996 414.897 181.971 408.812 182.952 403.649C184.14 397.436 185.345 392.553 186.539 390.178C187.914 387.439 189.289 384.742 190.62 382.161C191.195 381.05 191.759 379.958 192.313 378.887C192.613 378.31 192.913 377.74 193.207 377.181C194.544 374.636 195.806 372.286 196.962 370.202C197.775 368.739 198.524 367.415 199.212 366.255C200.018 364.888 200.73 363.758 201.318 362.902C205.656 356.51 212.112 351.751 219.614 349.413L219.802 349.364L219.983 349.437L220.189 349.528L232.1 345.295L237.417 332.85L264.731 331.216L269.143 334.478L271.399 336.148L273.804 337.928L278.229 341.201L279.485 341.578L281.353 342.137L294.132 345.951L294.263 345.896L294.451 345.945C301.278 348.069 307.254 352.209 311.548 357.788C311.972 358.323 312.366 358.875 312.747 359.434C313.785 360.928 315.184 363.291 316.834 366.255C317.515 367.475 318.234 368.799 318.99 370.202C319.446 371.047 323.383 382.987 327.213 395.183C330.794 406.601 334.281 418.244 334.737 421.232C334.818 421.785 334.906 422.343 334.987 422.896C335.506 426.352 336.018 429.832 336.512 433.227C337.243 438.262 337.955 443.121 338.636 447.464C338.643 447.506 338.649 447.543 338.655 447.585Z" fill="#3F3D56"/>
<path opacity="0.2" d="M309.709 403.621L304.399 383.705L299.711 400.891L309.709 403.621Z" fill="black"/>
<path d="M129.892 403.39C130.167 404.169 130.689 404.844 131.383 405.316C132.078 405.789 132.908 406.035 133.755 406.021L150.31 405.607C151.163 405.59 151.989 405.306 152.662 404.796C153.336 404.287 153.822 403.579 154.047 402.778L156.39 378.431C157.221 378.797 158.126 378.978 159.038 378.96C160.639 378.921 162.158 378.265 163.261 377.138C164.365 376.01 164.962 374.503 164.922 372.947C164.882 371.391 164.207 369.914 163.047 368.842C161.887 367.77 160.336 367.189 158.735 367.228C158.37 367.227 158.007 367.264 157.65 367.338C157.262 366.93 156.791 366.606 156.266 366.386C155.742 366.166 155.176 366.055 154.604 366.06L129.14 366.7C128.929 366.707 128.718 366.732 128.512 366.775C127.953 366.877 127.424 367.093 126.958 367.41C126.493 367.726 126.103 368.136 125.815 368.612C125.526 369.088 125.346 369.618 125.286 370.167C125.226 370.716 125.287 371.271 125.467 371.795L129.892 403.39ZM156.87 376.778L158.537 370.976C158.727 370.306 158.731 369.599 158.55 368.927C158.631 368.926 158.702 368.889 158.783 368.889C159.926 368.866 161.032 369.284 161.858 370.053C162.684 370.821 163.163 371.876 163.189 372.987C163.216 374.098 162.789 375.174 162 375.978C161.212 376.783 160.128 377.252 158.985 377.281C158.246 377.303 157.515 377.129 156.87 376.778Z" fill="#2F2E41"/>
<path d="M128.512 366.775C129.054 369.79 135.154 371.91 142.488 371.541C149.232 371.239 154.747 368.938 155.757 366.21C155.383 366.102 154.994 366.052 154.604 366.06L129.14 366.7C128.929 366.707 128.718 366.732 128.512 366.775Z" fill="#3F3D56"/>
<path d="M143.832 390.011C143.865 390.003 143.897 389.989 143.926 389.971L147.521 387.684C147.565 387.656 147.6 387.619 147.625 387.574C147.65 387.53 147.663 387.48 147.663 387.43C147.663 387.38 147.65 387.33 147.625 387.286C147.6 387.241 147.565 387.204 147.521 387.176L143.785 384.797C143.75 384.775 143.712 384.76 143.672 384.752C143.631 384.745 143.59 384.745 143.549 384.753C143.509 384.761 143.471 384.777 143.437 384.799C143.403 384.822 143.374 384.851 143.351 384.884C143.329 384.917 143.313 384.955 143.305 384.994C143.298 385.033 143.298 385.074 143.307 385.113C143.315 385.152 143.332 385.189 143.355 385.222C143.378 385.255 143.408 385.283 143.442 385.305L146.78 387.43L143.584 389.463C143.522 389.502 143.477 389.562 143.456 389.63C143.435 389.699 143.439 389.773 143.469 389.839C143.499 389.905 143.551 389.958 143.618 389.99C143.684 390.021 143.76 390.029 143.832 390.011H143.832Z" fill="#F9A826"/>
<path d="M138.154 390.266C138.214 390.251 138.268 390.219 138.31 390.174C138.351 390.129 138.378 390.073 138.387 390.013C138.395 389.953 138.385 389.892 138.357 389.838C138.33 389.783 138.286 389.738 138.232 389.708L134.919 387.862L138.122 385.549C138.154 385.525 138.182 385.496 138.203 385.461C138.224 385.427 138.238 385.389 138.244 385.35C138.25 385.31 138.248 385.27 138.238 385.232C138.228 385.193 138.21 385.157 138.186 385.125C138.162 385.093 138.131 385.066 138.096 385.045C138.06 385.025 138.021 385.011 137.981 385.005C137.94 385 137.899 385.002 137.859 385.011C137.819 385.021 137.782 385.038 137.749 385.062L134.163 387.651C134.121 387.681 134.088 387.721 134.066 387.766C134.044 387.812 134.034 387.862 134.037 387.913C134.04 387.963 134.056 388.012 134.084 388.054C134.111 388.097 134.149 388.133 134.194 388.158L137.921 390.235C137.992 390.274 138.075 390.285 138.154 390.266Z" fill="#F9A826"/>
<path d="M143.474 392.016C143.505 392.008 143.533 391.996 143.56 391.981C143.595 391.96 143.626 391.933 143.65 391.9C143.674 391.868 143.692 391.832 143.701 391.793C143.711 391.754 143.713 391.714 143.706 391.675C143.7 391.635 143.686 391.597 143.665 391.563L138.568 383.42C138.525 383.351 138.456 383.302 138.375 383.283C138.295 383.265 138.21 383.278 138.139 383.319C138.069 383.361 138.018 383.428 137.998 383.506C137.979 383.585 137.992 383.667 138.034 383.736L143.131 391.879C143.165 391.935 143.218 391.978 143.279 392.002C143.341 392.027 143.41 392.032 143.474 392.016Z" fill="#F9A826"/>
<path d="M610.629 448.246C610.248 448.434 609.86 448.622 609.479 448.804C599.606 453.603 591.707 456.33 580.903 459.318C579.991 449.418 579.109 432.017 578.253 421.231C578.028 418.431 577.804 416.08 577.585 414.422C577.53 413.541 577.344 412.671 577.035 411.841L577.072 414.422L577.166 421.231L577.71 460.168C564.27 463.624 550.464 465.558 536.567 465.932C535.842 465.95 535.13 465.962 534.443 465.974C534.199 465.98 533.961 465.986 533.724 465.986C532.943 465.993 532.168 465.999 531.387 465.999C516.742 466.009 502.15 464.29 487.932 460.879C488.239 451.082 488.545 433.876 488.838 421.231C488.901 418.759 488.957 416.457 489.02 414.422C489.138 410.074 489.263 406.94 489.382 405.889C489.277 406.075 489.195 406.273 489.138 406.478C488.56 409.097 488.165 411.751 487.957 414.422C487.739 416.457 487.52 418.759 487.301 421.231C486.139 434.368 484.927 452.23 483.677 459.804C476.238 457.83 468.939 455.389 461.825 452.497C458.075 450.979 454.393 449.341 450.777 447.584C451.464 443.211 452.183 438.309 452.92 433.226C453.495 429.284 454.088 425.233 454.695 421.231C455.632 415.048 487.476 348.282 494.981 345.943L495.169 345.895L495.3 345.949L508.079 342.135L509.947 341.577L511.203 341.2L515.627 337.926L518.033 336.147L520.289 334.477L524.701 331.215L552.014 332.849L557.332 345.294L569.243 349.527L569.449 349.436L569.63 349.363L569.817 349.411C577.32 351.749 583.775 356.509 588.114 362.901C588.701 363.757 589.414 364.887 590.22 366.253C590.907 367.413 591.657 368.737 592.47 370.201C593.626 372.284 594.888 374.635 596.225 377.179C596.519 377.738 596.819 378.309 597.119 378.886C597.675 379.955 598.239 381.046 598.812 382.16C600.143 384.741 601.518 387.438 602.893 390.177C604.086 392.552 605.292 397.435 606.479 403.648C607.461 408.81 608.435 414.896 609.379 421.231C610.616 429.442 609.298 439.275 610.416 446.831C610.485 447.31 610.56 447.778 610.629 448.246Z" fill="#3F3D56"/>
<path d="M530.522 326.748C548.066 326.748 562.289 312.924 562.289 295.872C562.289 278.82 548.066 264.997 530.522 264.997C512.977 264.997 498.755 278.82 498.755 295.872C498.755 312.924 512.977 326.748 530.522 326.748Z" fill="#FFB6B6"/>
<path opacity="0.2" d="M479.721 403.621L485.031 383.705L489.72 400.891L479.721 403.621Z" fill="black"/>
<path d="M621.015 390.644C619.115 416.08 621.083 427.28 610.598 448.252C601.057 452.79 591.12 456.494 580.903 459.318C579.841 459.609 578.776 459.893 577.71 460.168C564.27 463.624 550.464 465.558 536.567 465.932C535.843 465.95 535.13 465.962 534.443 465.974C534.199 465.98 533.962 465.986 533.724 465.986C532.943 465.993 532.168 465.999 531.387 465.999C516.742 466.009 502.15 464.29 487.933 460.879C486.508 460.539 485.089 460.18 483.677 459.804C476.238 457.83 468.939 455.389 461.825 452.497C458.075 450.979 454.393 449.341 450.777 447.584C449.958 447.183 449.14 446.782 448.333 446.369C444.19 439.287 441.835 430.675 441.785 420.326C444.653 402.494 614.678 375.266 621.015 390.644Z" fill="#2F2E41"/>
<path opacity="0.2" d="M621.01 395.001C621.107 393.426 621.215 391.799 621.342 390.105C615.005 374.727 444.98 401.955 442.112 419.787C442.12 421.422 442.192 423.008 442.313 424.557C449.259 406.957 610.785 381.079 621.01 395.001Z" fill="black"/>
<path d="M437.556 391.844L451.512 385.062L439.882 354.542L436.817 339.151C436.419 337.151 435.488 335.288 434.117 333.748C432.746 332.207 430.983 331.044 429.004 330.373C427.025 329.703 424.9 329.549 422.841 329.926C420.782 330.304 418.861 331.201 417.269 332.526C414.912 334.49 413.431 337.268 413.141 340.273C412.85 343.278 413.772 346.275 415.712 348.632L427.089 362.455L437.556 391.844Z" fill="#FFB6B6"/>
<path d="M451.512 379.41L432.904 388.453L447.026 431.459C448.04 434.547 449.858 437.328 452.303 439.533C454.749 441.737 457.738 443.29 460.983 444.041C464.984 444.967 469.184 444.63 472.975 443.08C476.765 441.53 479.949 438.846 482.065 435.419L519.511 373.035C522.165 368.736 522.984 363.6 521.794 358.722C520.603 353.844 517.498 349.612 513.14 346.93C510.797 345.487 508.167 344.541 505.422 344.151C502.677 343.762 499.879 343.938 497.208 344.67C494.538 345.401 492.057 346.671 489.925 348.396C487.793 350.121 486.059 352.263 484.835 354.683L461.979 402.018L451.512 379.41Z" fill="#3F3D56"/>
<path d="M250.918 324.617C270.222 324.617 285.871 309.407 285.871 290.645C285.871 271.883 270.222 256.673 250.918 256.673C231.614 256.673 215.965 271.883 215.965 290.645C215.965 309.407 231.614 324.617 250.918 324.617Z" fill="#A0616A"/>
<path d="M216.385 267.234C219.227 263.511 223.312 260.864 226.436 257.362C228.151 255.44 229.574 253.262 231.501 251.542C235.082 248.345 240.09 247.036 244.949 246.873C250.274 246.74 255.557 247.827 260.37 250.047C265.182 252.267 269.389 255.557 272.651 259.65C275.191 258.203 277.731 256.756 280.271 255.308C281.274 257.875 282.277 260.442 283.281 263.009C284.104 262.314 285.155 261.924 286.246 261.909C287.337 261.894 288.398 262.255 289.241 262.928C290.085 263.601 290.655 264.542 290.853 265.585C291.05 266.628 290.861 267.706 290.319 268.626C290.924 266.811 293.693 266.426 295.22 267.625C296.747 268.824 297.156 270.958 296.907 272.851C296.594 274.927 295.65 276.865 294.195 278.415C292.74 279.966 290.841 281.058 288.743 281.551C285.428 282.269 281.571 281.515 278.918 283.575C276.791 285.227 276.149 288.235 273.979 289.832C271.304 291.8 267.524 290.89 264.199 291.325C258.383 292.086 253.777 297.868 254.476 303.531C253.95 301.744 253.397 299.905 252.203 298.454C251.008 297.002 248.996 296.02 247.164 296.554C244.136 297.436 243.641 301.448 244.375 304.436C246.321 312.362 253.698 325.174 253.698 325.174C244.12 328.846 232.709 325.374 225.318 318.405C217.928 311.437 214.079 301.57 212.403 291.697C210.981 283.324 211.183 274.05 216.385 267.234Z" fill="#2F2E41"/>
<path d="M570.332 312.893C576.982 298.074 573.214 284.438 565.108 277.205V277.199C561.921 270.257 557.684 264.9 552.835 263.643C550.492 262.179 548.217 260.46 545.693 259.585C544.517 259.158 543.264 258.966 542.009 259.021C540.755 259.076 539.525 259.378 538.394 259.907L537.107 259.573C536.013 256.858 534.732 256.804 533.307 258.589C527.821 256.105 522.878 254.994 518.479 254.994C504.131 254.994 495.645 266.801 493.396 281.074L505.387 284.177L509.555 277.721L507.631 284.76L514.248 286.467C524.321 299.215 512.267 328.623 496.989 344.985C500.626 344.007 504.248 343.181 507.856 342.507L520.966 323.825L512.842 340.831C517.06 340.23 522.44 340.807 528.321 341.967C530.302 339.452 531.345 336.1 530.32 333.111C531.996 336.263 533.151 339.651 533.745 343.151C546.155 346.097 563.083 347.609 572.206 348.726C579.578 346.388 579.598 319.975 570.332 312.893Z" fill="#2F2E41"/>
<path d="M574.658 262.488C579.529 273.088 569.701 277.647 560.697 277.518C552.562 277.402 545.648 271.847 545.232 263.949C545.033 260.157 546.392 256.443 549.01 253.624C551.628 250.805 555.291 249.112 559.193 248.918C567.319 248.515 571.34 255.267 574.658 262.488Z" fill="#2F2E41"/>
<path d="M348.697 435.047L340.674 422.04L367.351 402.369L378.443 390.987C379.884 389.509 381.699 388.423 383.707 387.84C385.714 387.256 387.844 387.195 389.884 387.663C391.924 388.13 393.801 389.11 395.329 390.504C396.858 391.897 397.983 393.657 398.592 395.605C399.495 398.493 399.209 401.609 397.793 404.295C396.377 406.982 393.943 409.028 391.005 410.003L373.769 415.723L348.697 435.047Z" fill="#A0616A"/>
<path d="M354.496 434.618L342.004 444.737L338.636 447.464L338.243 447.779C337.374 448.198 336.499 448.612 335.618 449.018C332.981 450.239 330.311 451.399 327.607 452.499C320.493 455.39 313.194 457.831 305.755 459.805C304.343 460.182 302.924 460.54 301.499 460.88C300.631 461.086 299.756 461.293 298.881 461.487C298.331 461.615 297.775 461.736 297.219 461.852C296.544 461.998 295.869 462.143 295.194 462.277C294.488 462.423 293.782 462.562 293.076 462.696C291.176 460.939 289.663 458.825 288.63 456.482C287.596 454.139 287.064 451.616 287.064 449.067C287.064 448.903 287.064 448.733 287.071 448.563L289.077 398.56L289.964 376.397C290.101 371.386 292.249 366.624 295.949 363.131C299.649 359.638 304.608 357.69 309.767 357.703C310.366 357.703 310.96 357.733 311.548 357.788C311.972 358.323 312.366 358.875 312.747 359.434C313.785 360.928 315.184 363.291 316.834 366.255C317.515 367.475 318.234 368.799 318.99 370.202C319.446 371.047 323.383 382.987 327.213 395.183L325.526 407.919L322.477 430.877L334.987 422.896L343.798 417.272L344.841 418.967L347.56 423.376L352.809 431.879L354.496 434.618Z" fill="#3F3D56"/>
<path d="M347.647 420.327C347.641 421.36 347.616 422.374 347.56 423.376C347.43 426.14 347.1 428.892 346.573 431.612C345.71 436.178 344.171 440.599 342.005 444.737C341.717 445.289 341.411 445.836 341.099 446.37C340.292 446.783 339.474 447.184 338.655 447.585C338.518 447.652 338.38 447.719 338.243 447.78C334.762 449.462 331.217 451.035 327.607 452.499C320.493 455.391 313.194 457.831 305.755 459.805C304.343 460.182 302.924 460.54 301.5 460.88C298.719 461.548 295.911 462.154 293.076 462.696C281.537 464.899 269.805 466.006 258.045 466C257.264 466 256.489 465.994 255.708 465.988C255.47 465.988 255.233 465.982 254.989 465.976C254.302 465.964 253.589 465.951 252.865 465.933C238.968 465.56 225.162 463.626 211.722 460.169C210.654 459.896 209.589 459.613 208.529 459.319C198.312 456.495 188.375 452.792 178.834 448.253C168.349 427.281 170.317 416.082 168.417 390.646C172.317 381.177 238.286 387.864 289.077 398.56C302.862 401.463 315.522 404.664 325.526 407.919C335.862 411.278 343.354 414.691 346.291 417.898C346.978 418.562 347.449 419.406 347.647 420.327Z" fill="#2F2E41"/>
<path opacity="0.2" d="M168.421 395.001C168.324 393.426 168.216 391.799 168.089 390.105C174.425 374.727 344.451 401.955 347.319 419.787C347.311 421.422 347.239 423.008 347.118 424.557C340.172 406.957 178.646 381.079 168.421 395.001Z" fill="black"/>
</g>
<defs>
<filter id="filter0_d_37_2" x="0" y="0" width="776" height="590" filterUnits="userSpaceOnUse" color-interpolation-filters="sRGB">
<feFlood flood-opacity="0" result="BackgroundImageFix"/>
<feColorMatrix in="SourceAlpha" type="matrix" values="0 0 0 0 0 0 0 0 0 0 0 0 0 0 0 0 0 0 127 0" result="hardAlpha"/>
<feOffset dy="4"/>
<feGaussianBlur stdDeviation="2"/>
<feComposite in2="hardAlpha" operator="out"/>
<feColorMatrix type="matrix" values="0 0 0 0 0.616667 0 0 0 0 0.442078 0 0 0 0 0.161875 0 0 0 0.87 0"/>
<feBlend mode="normal" in2="BackgroundImageFix" result="effect1_dropShadow_37_2"/>
<feBlend mode="normal" in="SourceGraphic" in2="effect1_dropShadow_37_2" result="shape"/>
</filter>
<clipPath id="clip0_37_2">
<rect width="550" height="350" fill="white" transform="translate(120 116)"/>
</clipPath>
</defs>
</svg>
