<svg  viewBox="0 0 1315 1717" fill="none" xmlns="http://www.w3.org/2000/svg">
<g clip-path="url(#clip0_19_586)">
<path d="M452.467 339.782L379.061 329.773L445.701 334.585L426.316 319.678L373.922 311.343L421.193 315.733L386.33 288.925L340.698 288.335L380.845 284.713L317.669 235.014L317.407 234.805L317.679 235.008L398.977 296.196L381.481 246.087L405.928 301.289L445.858 329.691L444.882 328.809L427.945 273.449L448.542 331.596L453.537 335.147L453.644 335.156L454.024 335.493L506.874 373.083C505.779 375.057 504.628 377.019 503.423 378.967L499.409 375.883L443.273 372.852L495.572 372.934L452.467 339.782Z" fill="#3F3D56"/>
<path d="M396.236 506.879L322.83 496.871L389.47 501.683L370.085 486.776L317.692 478.44L364.962 482.831L330.099 456.023L284.467 455.432L324.614 451.81L261.438 402.111L261.176 401.903L261.448 402.105L342.746 463.293L325.25 413.185L349.697 468.387L389.627 496.788L388.651 495.907L371.714 440.546L392.311 498.694L397.306 502.244L397.413 502.253L397.793 502.59L450.643 540.18C449.548 542.155 448.397 544.116 447.192 546.065L443.178 542.981L387.042 539.949L439.341 540.031L396.236 506.879Z" fill="#CBCBCB"/>
<path d="M519.202 209.692L445.796 199.684L512.436 204.496L493.051 189.589L440.658 181.253L487.928 185.644L453.065 158.836L407.433 158.246L447.58 154.624L384.404 104.924L384.142 104.716L384.414 104.918L465.712 166.106L448.216 115.998L472.663 171.2L512.594 199.601L511.617 198.72L494.68 143.359L515.277 201.507L520.272 205.058L520.379 205.066L520.759 205.403L573.61 242.994C572.514 244.968 571.363 246.93 570.158 248.878L566.144 245.794L510.008 242.762L562.307 242.844L519.202 209.692Z" fill="#3F3D56"/>
<path d="M383.847 881.237C382.832 854.329 383.459 827.375 385.722 800.561C391.786 725.366 409.463 640.537 438.004 550.414C439.961 544.218 441.973 537.998 444.04 531.756C448.418 518.491 453.032 505.128 457.882 491.667C459.082 488.344 460.29 485.014 461.504 481.679C468.348 463.016 475.628 444.205 483.344 425.246C483.496 424.863 483.654 424.485 483.818 424.099C485.622 419.644 487.459 415.186 489.327 410.725C526.476 321.463 573.023 229.434 628.333 138.28C628.783 137.523 629.246 136.762 629.704 136.01L913.757 348.449L465.912 1084.63C414.412 1046.12 387.72 974.484 383.847 881.237Z" fill="#F4F4F4"/>
<path d="M505.231 759.193C503.277 712.088 508.871 657.828 521.595 598.912C523.001 592.367 524.5 585.769 526.094 579.116C526.314 578.186 526.538 577.248 526.763 576.31C528.813 567.853 530.998 559.307 533.32 550.671C537.253 536.084 541.581 521.296 546.302 506.305C549.675 495.569 553.247 484.749 557.019 473.846C558.224 470.337 559.455 466.83 560.713 463.323C563.545 455.332 566.488 447.304 569.542 439.238C600.715 356.737 642.751 270.183 694.77 184.672L913.757 348.449L568.496 916.002C528.792 886.308 508.216 831.077 505.231 759.193Z" fill="#F9A826" fill-opacity="0.6"/>
<path d="M593.863 847.128L595.319 846.174C589.318 834.75 584.449 822.64 580.798 810.054L579.192 810.636C582.884 823.35 587.803 835.585 593.863 847.128ZM570.862 771.787L572.53 771.488C570.777 759.102 569.651 746.617 569.159 734.091C569.128 733.39 569.101 732.681 569.074 731.973L567.386 732.054C567.413 732.762 567.44 733.471 567.474 734.185C567.971 746.779 569.102 759.333 570.862 771.787ZM567.634 692.137L569.317 692.233C569.894 679.504 570.956 666.179 572.466 652.635L570.784 652.405C569.276 665.995 568.216 679.367 567.634 692.137ZM576.306 612.99L577.959 613.334C580.079 600.664 582.591 587.565 585.424 574.424L583.785 573.989C580.94 587.166 578.426 600.286 576.306 612.99ZM592.94 535.429L594.558 535.95C595.424 532.602 596.308 529.257 597.212 525.881C599.693 516.698 602.361 507.293 605.164 497.933L603.558 497.342C600.753 506.723 598.076 516.143 595.599 525.352C594.693 528.722 593.806 532.081 592.94 535.429L592.94 535.429ZM619.318 448.461C618.012 452.214 616.72 456.011 615.476 459.73L617.055 460.381C618.306 456.667 619.593 452.878 620.892 449.12C622.122 445.558 623.356 442.023 624.583 438.618C626.389 433.524 628.252 428.37 630.125 423.316L628.565 422.6C626.689 427.676 624.82 432.824 623.009 437.926C621.789 441.337 620.545 444.887 619.318 448.461L619.318 448.461ZM642.727 385.968L644.27 386.727C649.083 374.784 654.174 362.632 659.401 350.627L657.879 349.816C652.65 361.842 647.553 374.001 642.727 385.968ZM673.962 314.157L675.463 315.02C680.908 303.358 686.606 291.548 692.395 279.906L690.918 279.005C685.124 290.654 679.416 302.48 673.962 314.157L673.962 314.157ZM708.71 244.353L710.166 245.307C716.169 233.949 722.413 222.48 728.725 211.218L727.292 210.225C720.974 221.516 714.725 232.993 708.71 244.353L708.71 244.353Z" fill="white"/>
<path d="M627.923 635.837C623.648 532.909 670.92 381.172 760.536 233.857L913.756 348.449L672.185 745.555C644.409 724.782 630.011 686.135 627.923 635.837Z" fill="#F4F4F4"/>
</g>
<g clip-path="url(#clip1_19_586)">
<path d="M929.537 834.751C930.764 861.648 930.349 888.606 928.296 915.441C922.824 990.692 905.817 1075.69 877.986 1166.09C876.077 1172.3 874.114 1178.54 872.097 1184.8C867.823 1198.11 863.315 1211.51 858.571 1225.02C857.397 1228.36 856.215 1231.7 855.027 1235.04C848.33 1253.77 841.199 1272.65 833.632 1291.69C833.484 1292.07 833.328 1292.45 833.168 1292.84C831.398 1297.31 829.597 1301.79 827.764 1306.27C791.319 1395.88 745.497 1488.36 690.908 1580.04C690.463 1580.81 690.006 1581.57 689.555 1582.33L403.841 1372.65L845.874 632.155C897.675 670.172 924.93 741.544 929.537 834.751Z" fill="#F4F4F4"/>
<path d="M809.118 957.964C811.442 1005.05 806.275 1059.36 794.016 1118.4C792.662 1124.96 791.214 1131.57 789.673 1138.24C789.46 1139.17 789.243 1140.11 789.026 1141.05C787.043 1149.52 784.925 1158.09 782.671 1166.75C778.853 1181.37 774.642 1196.2 770.038 1211.24C766.751 1222.01 763.264 1232.86 759.577 1243.8C758.4 1247.32 757.197 1250.84 755.967 1254.36C753.198 1262.38 750.318 1270.43 747.327 1278.53C716.805 1361.33 675.452 1448.29 624.108 1534.3L403.84 1372.65L744.621 801.773C784.557 831.082 805.567 886.113 809.118 957.964Z" fill="#F9A826" fill-opacity="0.6"/>
<path d="M719.797 870.89L718.349 871.859C724.44 883.224 729.404 895.287 733.153 907.836L734.754 907.239C730.963 894.561 725.948 882.374 719.797 870.89ZM743.39 946.006L741.725 946.321C743.575 958.69 744.799 971.164 745.39 983.684C745.427 984.385 745.459 985.093 745.492 985.801L747.179 985.704C747.147 984.996 747.114 984.288 747.074 983.574C746.478 970.985 745.248 958.443 743.39 946.006ZM747.245 1025.62L745.562 1025.54C745.085 1038.28 744.128 1051.61 742.724 1065.17L744.408 1065.38C745.809 1051.78 746.763 1038.4 747.245 1025.62ZM739.196 1104.85L737.54 1104.52C735.521 1117.21 733.112 1130.33 730.382 1143.5L732.024 1143.92C734.765 1130.72 737.177 1117.57 739.196 1104.85ZM723.173 1182.57L721.552 1182.06C720.712 1185.42 719.854 1188.77 718.977 1192.16C716.568 1201.36 713.974 1210.79 711.245 1220.18L712.855 1220.76C715.587 1211.35 718.189 1201.9 720.593 1192.67C721.473 1189.29 722.333 1185.92 723.173 1182.57L723.173 1182.57ZM697.481 1269.79C698.757 1266.02 700.019 1262.21 701.234 1258.48L699.65 1257.85C698.428 1261.57 697.171 1265.37 695.902 1269.15C694.7 1272.72 693.493 1276.26 692.293 1279.68C690.528 1284.79 688.706 1289.96 686.872 1295.04L688.437 1295.74C690.273 1290.64 692.103 1285.48 693.873 1280.36C695.066 1276.94 696.282 1273.37 697.481 1269.79L697.481 1269.79ZM674.565 1332.51L673.015 1331.76C668.297 1343.75 663.301 1355.95 658.169 1368.01L659.698 1368.8C664.832 1356.73 669.833 1344.52 674.565 1332.51ZM643.896 1404.62L642.388 1403.77C637.035 1415.48 631.43 1427.35 625.733 1439.04L627.217 1439.93C632.919 1428.23 638.533 1416.35 643.896 1404.62L643.896 1404.62ZM609.699 1474.75L608.235 1473.81C602.322 1485.23 596.168 1496.76 589.945 1508.08L591.385 1509.06C597.615 1497.71 603.774 1486.17 609.699 1474.75L609.699 1474.75Z" fill="white"/>
<path d="M687.402 1082.5C692.486 1185.39 646.41 1337.57 557.957 1485.75L403.84 1372.65L642.277 973.218C670.216 993.721 684.917 1032.23 687.402 1082.5Z" fill="#F4F4F4"/>
<path d="M588.5 1374L711.5 1374L636.5 1561L524.5 1494L588.5 1374Z" fill="#F4F4F4"/>
</g>
<path d="M568.5 916L672 745.5L744.5 802L642.5 973L568.5 916Z" fill="#F7C678"/>
<path d="M676.416 877C647.467 874.556 636.095 866.648 634.027 863" stroke="white" stroke-width="1.8"/>
<defs>
<clipPath id="clip0_19_586">
<rect width="861.704" height="581.8" fill="white" transform="matrix(0.51972 -0.854337 0.800812 0.598916 0 736.185)"/>
</clipPath>
<clipPath id="clip1_19_586">
<rect width="862.392" height="581.297" fill="white" transform="matrix(-0.512567 0.858648 -0.806191 -0.591655 1314.51 976.083)"/>
</clipPath>
</defs>
</svg>
