<svg width="450" height="450" viewBox="0 0 776 578" fill="none" xmlns="http://www.w3.org/2000/svg">
<g filter="url(#filter0_d_19_603)">
<path d="M657.468 0.871634C659.688 12.9233 662.04 24.9515 664.663 36.9238C667.03 47.7297 673.576 56.8639 677.385 67.1189C681.078 77.0634 684.98 86.2006 689.547 95.8616C704.618 127.745 723.631 157.357 744.755 186.141C756.742 202.475 763.984 217.357 768.198 236.594C771.307 250.785 771.799 273.826 771.799 288.27C771.799 309.59 756.118 311.307 756.118 332.851C722.615 332.851 759.292 366.108 756.118 379.837C704.034 409.862 776.278 419.356 771.799 431.881C766.678 446.2 758.57 457.207 743.597 464.91C732.746 470.492 715.508 475.097 702.749 475.097C697.439 475.097 676.08 469.703 676.052 469.906C676.566 470.068 677.086 470.237 677.611 470.414C676.525 470.094 676.047 469.937 676.052 469.906C657.171 463.975 645.743 468.413 636.608 468.413C613.71 468.413 598.759 472.164 576.527 477.743L576.103 477.849C543.626 485.998 527.072 502.116 500.159 521.193C491.512 527.322 482.712 531.467 474.475 538.392C465.587 545.865 458.188 556.315 447.093 560.992C425.744 569.991 408.955 570 386.088 570C375.068 570 353.536 568.802 343.256 563.695C327.588 555.911 305.616 545.918 292.033 535.258C281.585 527.059 268.196 521.652 255.577 518.456C238.508 514.132 228.571 517.272 211.164 522.771L210.596 522.951C192.572 524.961 175.933 533.464 159.57 538.973C143.108 544.515 115.767 545.545 98.5646 544.478C69.3268 542.664 56.0215 518.991 43.7718 495.584C31.9853 473.062 5.09854 457.258 4.05693 431.881C3.31076 413.703 10.0575 396.851 15.0578 379.837C16.2532 344.432 57.5483 310.443 82.5775 288.27C96.9544 275.533 112.473 258.689 118.103 240.263C123.04 224.103 123.708 200.94 115.062 185.835C103.043 164.837 73.1879 165.89 57.6138 148.149C44.207 132.877 32.9702 115.226 32.9702 95.0207C32.9702 86.5162 32.7922 77.9918 32.9702 69.4886C33.1761 59.6514 38.7155 51.2826 44.0643 43.2017L44.1718 43.0392C52.9411 29.79 70.6152 24.8182 85.938 22.3995C96.3681 20.7531 106.053 18.2716 116.662 18.2716C131.248 18.2716 145.411 21.0235 160.029 21.0235C195.617 21.0235 231.157 22.3995 266.765 22.3995H363.259C391.97 22.3995 419.684 19.451 448.231 17.9658C471.191 16.7713 494.199 15.6414 517.041 13.3792C548.394 10.2742 579.763 11.0279 611.135 7.56951C626.279 5.90004 642.032 2.20112 657.468 0.871634Z" fill="#F9A826"/>
</g>
<defs>
<filter id="filter0_d_19_603" x="0" y="0.871643" width="776" height="577.128" filterUnits="userSpaceOnUse" color-interpolation-filters="sRGB">
<feFlood flood-opacity="0" result="BackgroundImageFix"/>
<feColorMatrix in="SourceAlpha" type="matrix" values="0 0 0 0 0 0 0 0 0 0 0 0 0 0 0 0 0 0 127 0" result="hardAlpha"/>
<feOffset dy="4"/>
<feGaussianBlur stdDeviation="2"/>
<feComposite in2="hardAlpha" operator="out"/>
<feColorMatrix type="matrix" values="0 0 0 0 0.616667 0 0 0 0 0.442078 0 0 0 0 0.161875 0 0 0 0.87 0"/>
<feBlend mode="normal" in2="BackgroundImageFix" result="effect1_dropShadow_19_603"/>
<feBlend mode="normal" in="SourceGraphic" in2="effect1_dropShadow_19_603" result="shape"/>
</filter>
</defs>
</svg>
